<?xml version="1.0" encoding="utf-8"?>
<!-- Generator: Adobe Illustrator 25.2.3, SVG Export Plug-In . SVG Version: 6.00 Build 0)  -->
<svg version="1.1" id="Ebene_1" xmlns="http://www.w3.org/2000/svg" xmlns:xlink="http://www.w3.org/1999/xlink" x="0px" y="0px"
	 viewBox="0 0 602 127" style="enable-background:new 0 0 602 127;" xml:space="preserve">
<style type="text/css">
	.st0{fill:#FFD149;}
	.st1{fill:#DDDDDD;}
</style>
<polygon class="st0" points="601.9,113.7 601.9,110.8 586.7,110.8 586.7,125.2 601.9,125.2 601.9,122.2 590.4,122.2 590.4,119.4 
	601.9,119.4 601.9,116.7 590.4,116.7 590.4,113.7 "/>
<path class="st0" d="M566.1,113.7c3,0,4.8,0.8,5.2,3.2h3.7c-0.3-4.2-3.2-6.4-9-6.4c-6.4,0-9,2.7-9,7.4c0,4.8,2.7,7.4,9,7.4
	c5.7,0,8.5-2.2,9-6.4h-3.7c-0.3,2.3-2.2,3.3-5.2,3.3c-3.7,0-5.4-1.3-5.4-4.3C560.8,115,562.4,113.7,566.1,113.7z"/>
<polygon class="st0" points="541.9,121.7 532,110.8 527.2,110.8 527.2,125.2 530.8,125.2 530.8,114.4 540.5,125.2 545.6,125.2 
	545.6,110.8 541.9,110.8 "/>
<path class="st0" d="M503.6,110.8l-7.4,14.4h4l1.5-3h8.5l1.5,3h4l-7.4-14.4H503.6z M503.1,119.4l3-5.9l2.8,5.9H503.1z"/>
<polygon class="st0" points="481.2,121.7 471.5,110.8 466.5,110.8 466.5,125.2 470.1,125.2 470.1,114.4 479.8,125.2 484.9,125.2 
	484.9,110.8 481.2,110.8 "/>
<rect x="450.8" y="110.8" class="st0" width="3.7" height="14.4"/>
<polygon class="st0" points="424.2,125.2 427.8,125.2 427.8,120.7 438,120.7 438,117.5 427.8,117.5 427.8,113.9 439.4,113.9 
	439.4,110.8 424.2,110.8 "/>
<path class="st0" d="M385.7,110.8h-10.4v14.4h10.4c3.7,0,7-2.3,7-7.2C392.7,113.2,389.4,110.8,385.7,110.8z M384.2,122h-5.4v-8.2
	h5.4c2.8,0,4.7,0.7,4.7,4S387,122,384.2,122z"/>
<polygon class="st0" points="348.4,125.2 363.6,125.2 363.6,122.2 352.1,122.2 352.1,119.4 363.6,119.4 363.6,116.7 352.1,116.7 
	352.1,113.7 363.6,113.7 363.6,110.8 348.4,110.8 "/>
<polygon class="st0" points="320.3,113.9 331.4,113.9 320.3,122 320.3,125.2 336.6,125.2 336.6,122 325.7,122 336.6,113.9 
	336.6,110.8 320.3,110.8 "/>
<rect x="305" y="110.8" class="st0" width="3.7" height="14.4"/>
<polygon class="st0" points="282,110.8 278.4,110.8 278.4,125.2 293.2,125.2 293.2,122 282,122 "/>
<path class="st0" d="M254.8,110.8l-7.4,14.4h4l1.5-3h8.5l1.5,3h4l-7.4-14.4H254.8z M254.3,119.4l3-5.9l2.8,5.9H254.3z"/>
<path class="st0" d="M236.7,116c0-3.2-2.2-5.4-5.5-5.4h-11.4v14.4h3.7v-3.8h6l2.3,3.8h4.3l-2.7-4.3
	C235.6,120.2,236.7,118.4,236.7,116z M230.2,118.2h-6.5v-4.3h6.5c1.2,0,2.8,0,2.8,2.2C233.1,118.2,231.4,118.2,230.2,118.2z"/>
<polygon class="st0" points="190.9,113.9 197.8,113.9 197.8,125.2 201.6,125.2 201.6,113.9 208.5,113.9 208.5,110.8 190.9,110.8 "/>
<polygon class="st0" points="175.7,121.7 165.8,110.8 160.8,110.8 160.8,125.2 164.5,125.2 164.5,114.4 174.4,125.2 179.4,125.2 
	179.4,110.8 175.7,110.8 "/>
<polygon class="st0" points="134.1,125.2 149.3,125.2 149.3,122.2 137.8,122.2 137.8,119.4 149.3,119.4 149.3,116.7 137.8,116.7 
	137.8,113.7 149.3,113.7 149.3,110.8 134.1,110.8 "/>
<path class="st0" d="M113.5,113.7c3,0,4.8,0.8,5.2,3.2h3.7c-0.3-4.2-3.2-6.4-9-6.4c-6.4,0-9,2.7-9,7.4c0,4.8,2.7,7.4,9,7.4
	c5.7,0,8.5-2.2,9-6.4h-3.7c-0.3,2.3-2.2,3.3-5.2,3.3c-3.7,0-5.4-1.3-5.4-4.3C108.2,115,109.7,113.7,113.5,113.7z"/>
<polygon class="st0" points="77.9,125.2 93.1,125.2 93.1,122.2 81.7,122.2 81.7,119.4 93.1,119.4 93.1,116.7 81.7,116.7 81.7,113.7 
	93.1,113.7 93.1,110.8 77.9,110.8 "/>
<path class="st0" d="M59.3,110.8H49v14.4h10.4c3.7,0,7-2.3,7-7.2C66.4,113.2,63.2,110.8,59.3,110.8z M58,122h-5.4v-8.2H58
	c2.8,0,4.7,0.7,4.7,4S60.8,122,58,122z"/>
<polygon class="st1" points="578,0.6 578,69.7 515.4,0.6 483.5,0.6 483.5,92.6 507.1,92.6 507.1,23.7 569.5,92.6 601.5,92.6 
	601.5,0.6 "/>
<polygon class="st1" points="371.2,92.6 468.6,92.6 468.6,73.8 394.8,73.8 394.8,55.2 462.1,55.2 462.1,38 394.8,38 394.8,19.4 
	468.6,19.4 468.6,0.6 371.2,0.6 "/>
<path class="st1" d="M356.3,34.4c0-20.5-14.2-33.7-35-33.7h-71.7v91.9h23.5V67.9H311l14.6,24.7h27.7l-16.8-27.2
	C348.7,60.4,356.3,49.3,356.3,34.4z M315.2,47.7h-42.6V20.2h41.7h0.3h0.6c7,0,17.1,0.6,17.1,13.9C332.2,47.2,322.2,47.7,315.2,47.7z
	"/>
<path class="st1" d="M157.4,0.6l-47.6,91.9h26.1l9.9-19.5h55.2l9.9,19.5H237L189.5,0.6H157.4z M154.5,55.8l18.9-37.8l18.9,37.8
	H154.5z"/>
<polygon class="st1" points="101.6,0.6 64.6,75.1 27.5,0.6 1,0.6 48.4,92.6 80.8,92.6 128.1,0.6 "/>
</svg>
