<?xml version="1.0" encoding="UTF-8"?>
<svg width="602px" height="127px" viewBox="0 0 602 127" version="1.1" xmlns="http://www.w3.org/2000/svg" xmlns:xlink="http://www.w3.org/1999/xlink">
    <title>Varen Finance</title>
    <g id="Page-1" stroke="none" stroke-width="1" fill="none" fill-rule="evenodd">
        <g id="MetaLanding" transform="translate(-634.000000, -90.000000)">
            <g id="Varen" transform="translate(635.000000, 90.000000)">
                <g id="Logo" transform="translate(270.187095, 117.754585)" fill="#FFD149" fill-rule="nonzero">
                    <path d="M6.24014015,8.7389245 C8.46349717,8.7389245 10.4166119,7.36038993 10.4166119,4.43100397 C10.4166119,1.50161801 8.46349717,0.123083444 6.24014015,0.123083444 L0,0.123083444 L0,8.7389245 L6.24014015,8.7389245 Z M5.4048458,6.8803645 L2.21107328,6.8803645 L2.21107328,1.98164344 L5.4048458,1.98164344 C7.0754345,1.98164344 8.20553862,2.33858543 8.20553862,4.43100397 C8.20553862,6.52342252 7.0754345,6.8803645 5.4048458,6.8803645 Z M26.4468934,8.7389245 L26.4468934,6.97883126 L19.5679988,6.97883126 L19.5679988,5.23104636 L26.4468934,5.23104636 L26.4468934,3.63096159 L19.5679988,3.63096159 L19.5679988,1.88317669 L26.4468934,1.88317669 L26.4468934,0.123083444 L17.3569255,0.123083444 L17.3569255,8.7389245 L26.4468934,8.7389245 Z M38.595513,8.86200795 C42.0226766,8.86200795 43.7424002,7.5450151 43.9635075,5.04642119 L41.715583,5.04642119 C41.5067595,6.44957245 40.4257903,7.00344795 38.595513,7.00344795 C36.3598722,7.00344795 35.4017405,6.19109722 35.4017405,4.41869563 C35.4017405,2.65860238 36.3475885,1.85856 38.595513,1.85856 C40.438074,1.85856 41.5067595,2.40012715 41.715583,3.79097007 L43.9635075,3.79097007 C43.7424002,1.3046845 42.0226766,0 38.595513,0 C34.8121209,0 33.1906672,1.56315974 33.1906672,4.41869563 C33.1906672,7.28653987 34.8121209,8.86200795 38.595513,8.86200795 Z M59.9937891,8.7389245 L59.9937891,6.97883126 L53.1148944,6.97883126 L53.1148944,5.23104636 L59.9937891,5.23104636 L59.9937891,3.63096159 L53.1148944,3.63096159 L53.1148944,1.88317669 L59.9937891,1.88317669 L59.9937891,0.123083444 L50.9038211,0.123083444 L50.9038211,8.7389245 L59.9937891,8.7389245 Z M69.145176,8.7389245 L69.145176,2.27704371 L75.0045201,8.7389245 L78.0140366,8.7389245 L78.0140366,0.123083444 L75.8029633,0.123083444 L75.8029633,6.59727258 L69.9313353,0.123083444 L66.9341027,0.123083444 L66.9341027,8.7389245 L69.145176,8.7389245 Z M91.2681927,8.7389245 L91.2681927,1.98164344 L95.4446645,1.98164344 L95.4446645,0.123083444 L84.8806477,0.123083444 L84.8806477,1.98164344 L89.0571195,1.98164344 L89.0571195,8.7389245 L91.2681927,8.7389245 Z M104.522349,8.7389245 L104.522349,6.43726411 L108.084634,6.43726411 L109.472696,8.7389245 L112.076849,8.7389245 L110.492247,6.17878887 C111.646918,5.72338013 112.359375,4.68947921 112.359375,3.28632795 C112.359375,1.36622623 111.020448,0.123083444 109.067333,0.123083444 L102.311276,0.123083444 L102.311276,8.7389245 L104.522349,8.7389245 Z M108.453146,4.57870411 L104.522349,4.57870411 L104.522349,1.98164344 L108.453146,1.98164344 C109.116468,1.98164344 110.148302,1.98164344 110.148302,3.28632795 C110.148302,4.57870411 109.116468,4.57870411 108.453146,4.57870411 Z M121.117683,8.7389245 L122.038963,6.90498119 L127.18585,6.90498119 L128.107131,8.7389245 L130.551595,8.7389245 L126.104881,0.123083444 L123.119932,0.123083444 L118.685502,8.7389245 L121.117683,8.7389245 Z M126.36284,5.25566305 L122.861974,5.25566305 L124.618549,1.76009325 L126.36284,5.25566305 Z M146.06596,8.7389245 L146.06596,6.8803645 L139.43274,6.8803645 L139.43274,0.123083444 L137.221666,0.123083444 L137.221666,8.7389245 L146.06596,8.7389245 Z M155.278765,8.7389245 L155.278765,0.123083444 L153.067692,0.123083444 L153.067692,8.7389245 L155.278765,8.7389245 Z M172.046071,8.7389245 L172.046071,6.8803645 L165.511121,6.8803645 L172.046071,1.98164344 L172.046071,0.123083444 L162.341916,0.123083444 L162.341916,1.98164344 L168.864582,1.98164344 L162.341916,6.8803645 L162.341916,8.7389245 L172.046071,8.7389245 Z M188.19919,8.7389245 L188.19919,6.97883126 L181.320295,6.97883126 L181.320295,5.23104636 L188.19919,5.23104636 L188.19919,3.63096159 L181.320295,3.63096159 L181.320295,1.88317669 L188.19919,1.88317669 L188.19919,0.123083444 L179.109222,0.123083444 L179.109222,8.7389245 L188.19919,8.7389245 Z M201.379644,8.7389245 C203.603001,8.7389245 205.556116,7.36038993 205.556116,4.43100397 C205.556116,1.50161801 203.603001,0.123083444 201.379644,0.123083444 L195.139504,0.123083444 L195.139504,8.7389245 L201.379644,8.7389245 Z M200.544349,6.8803645 L197.350577,6.8803645 L197.350577,1.98164344 L200.544349,1.98164344 C202.214938,1.98164344 203.345042,2.33858543 203.345042,4.43100397 C203.345042,6.52342252 202.214938,6.8803645 200.544349,6.8803645 Z M226.598163,8.7389245 L226.598163,6.04339709 L232.740034,6.04339709 L232.740034,4.17252874 L226.598163,4.17252874 L226.598163,1.98164344 L233.477058,1.98164344 L233.477058,0.123083444 L224.38709,0.123083444 L224.38709,8.7389245 L226.598163,8.7389245 Z M242.554743,8.7389245 L242.554743,0.123083444 L240.343669,0.123083444 L240.343669,8.7389245 L242.554743,8.7389245 Z M251.890386,8.7389245 L251.890386,2.27704371 L257.74973,8.7389245 L260.759246,8.7389245 L260.759246,0.123083444 L258.548173,0.123083444 L258.548173,6.59727258 L252.676545,0.123083444 L249.679312,0.123083444 L249.679312,8.7389245 L251.890386,8.7389245 Z M269.861498,8.7389245 L270.782779,6.90498119 L275.929666,6.90498119 L276.850946,8.7389245 L279.295411,8.7389245 L274.848697,0.123083444 L271.863748,0.123083444 L267.429317,8.7389245 L269.861498,8.7389245 Z M275.106655,5.25566305 L271.605789,5.25566305 L273.362364,1.76009325 L275.106655,5.25566305 Z M288.176555,8.7389245 L288.176555,2.27704371 L294.035899,8.7389245 L297.045416,8.7389245 L297.045416,0.123083444 L294.834343,0.123083444 L294.834343,6.59727258 L288.962715,0.123083444 L285.965482,0.123083444 L285.965482,8.7389245 L288.176555,8.7389245 Z M309.329157,8.86200795 C312.75632,8.86200795 314.476044,7.5450151 314.697151,5.04642119 L312.449227,5.04642119 C312.240403,6.44957245 311.159434,7.00344795 309.329157,7.00344795 C307.093516,7.00344795 306.135384,6.19109722 306.135384,4.41869563 C306.135384,2.65860238 307.081232,1.85856 309.329157,1.85856 C311.171718,1.85856 312.240403,2.40012715 312.449227,3.79097007 L314.697151,3.79097007 C314.476044,1.3046845 312.75632,0 309.329157,0 C305.545765,0 303.924311,1.56315974 303.924311,4.41869563 C303.924311,7.28653987 305.545765,8.86200795 309.329157,8.86200795 Z M330.727433,8.7389245 L330.727433,6.97883126 L323.848538,6.97883126 L323.848538,5.23104636 L330.727433,5.23104636 L330.727433,3.63096159 L323.848538,3.63096159 L323.848538,1.88317669 L330.727433,1.88317669 L330.727433,0.123083444 L321.637465,0.123083444 L321.637465,8.7389245 L330.727433,8.7389245 Z" id="DECENTRALIZEDFINANCE"></path>
                </g>
                <g id="Group" transform="translate(181.945313, 35.046358)" fill="#DDDDDD" fill-rule="nonzero">
                    <path d="M55.6875219,64.1059603 L88.7692181,0 L70.2067108,0 L44.384609,51.9258278 L18.5625073,0 L0,0 L33.0816962,64.1059603 L55.6875219,64.1059603 Z M94.168588,64.1059603 L101.060608,50.4605487 L139.564027,50.4605487 L146.456047,64.1059603 L164.742873,64.1059603 L131.47739,0 L109.147245,0 L75.9736551,64.1059603 L94.168588,64.1059603 Z M133.553688,38.4635762 L107.16284,38.4635762 L120.404564,12.0198675 L133.553688,38.4635762 Z M189.905786,64.1059603 L189.905786,46.9805109 L216.273171,46.9805109 L226.547359,64.1059603 L245.822826,64.1059603 L234.093886,45.0573321 C242.640555,41.6688742 247.914032,33.9761589 247.914032,23.5360454 C247.914032,9.24957427 238.003533,0 223.546932,0 L173.539823,0 L173.539823,64.1059603 L189.905786,64.1059603 Z M219.263784,32.8534455 L189.534276,32.8543046 L189.534276,13.6225166 L218.589703,13.6225166 L218.807751,13.6225166 L218.807751,13.6225166 L219.25366,13.6233462 C224.150936,13.6413213 231.119856,14.0487577 231.119856,23.2839836 C231.119856,32.4257828 224.160534,32.8351171 219.263784,32.8534455 L219.263784,32.8534455 Z M326.286856,64.1059603 L326.286856,51.0100284 L274.845234,51.0100284 L274.845234,38.0056764 L321.718841,38.0056764 L321.718841,26.1002838 L274.845234,26.1002838 L274.845234,13.0959319 L326.286856,13.0959319 L326.286856,0 L258.310427,0 L258.310427,64.1059603 L326.286856,64.1059603 Z M353.12101,64.1059603 L353.12101,16.0264901 L396.681071,64.1059603 L419.054687,64.1059603 L419.054687,0 L402.616928,0 L402.616928,48.1710501 L358.965546,0 L336.683251,0 L336.683251,64.1059603 L353.12101,64.1059603 Z" id="VAREN"></path>
                </g>
                <g id="Icon-Copy-2">
                    <g id="Group-5-Copy-2" transform="translate(0.000000, 0.000000)">
                        <g id="Group-2-Copy-2" transform="translate(67.000000, 63.500000) scale(-1, 1) translate(-67.000000, -63.500000) ">
                            <path d="M0.0892435302,74.2808609 C0.438575738,71.5011408 1.37012829,69.6943226 1.95234864,68.5824346 C5.56211478,61.7721201 14.0625318,47.4565612 15.5763047,44.815827 C16.042081,44.120897 16.6243014,43.0090089 17.0900776,41.4801628 C17.672298,39.8123307 17.9051861,38.1444986 18.0216302,37.7275406 C18.1380743,37.0326105 18.1380743,37.0326105 18.2545183,36.4766665 C18.2545183,36.1986945 18.6038505,34.2528904 19.418959,32.5850582 C20.1176234,31.0562121 20.9327319,30.0833101 21.5149523,29.249394 C26.4056032,23.6899537 33.1560685,19.6304309 34.6731321,14.9338351 C34.8725615,14.3164323 35.1584052,13.6523949 35.5153429,12.9665477 C35.5546508,12.8910184 35.9509952,1.77109613 35.992007,1.69507108 C38.4115182,-2.79005883 43.4044935,2.96374931 47.4819797,3.67596838 C60.1743832,5.89974452 68.22432,14.6374603 79.2865065,23.2545928 C80.0301242,23.8690654 83.1430957,27.715196 88.4123159,32.5850582 C91.9251294,35.8316331 96.8060214,43.6825056 103.054992,56.1376759 L105.579378,67.2670768 L109.796233,81.3850495 C109.684833,82.210518 109.473679,84.7632953 109.162771,89.0433814 C108.354328,100.17272 102.97416,112.416872 101.576831,118.254284 C97.8506205,116.864424 66.9066876,123.866405 52.7005112,126.507139 C50.4406283,126.906748 47.8047289,127.126835 44.7982186,126.922221 C43.9459749,126.86422 55.4420709,104.394138 79.2865065,59.5119741 C52.4181974,103.872746 38.6748347,125.973393 38.0564186,125.813915 C34.213712,124.82295 29.9324546,123.122368 25.2197108,120.391754 C27.3933335,119.743153 38.3557012,104.878073 58.1068139,75.796514 C60.3008571,71.8991541 61.3978786,68.1263356 61.3978786,64.4780584 C61.3978786,60.3728623 59.8231923,55.8085933 56.6738195,50.7852513 C56.5414753,53.8715118 56.2142419,56.3973194 55.6921193,58.362674 C54.9089353,61.3107059 45.1403547,73.3106892 42.1255525,74.4198469 C37.2502993,76.2134721 39.2764706,73.1557799 31.8240502,75.796514 C30.4267213,76.2134721 28.7965044,76.9084021 27.0498433,78.5762342 C24.837406,80.6610244 22.5442557,83.2918505 22.5442557,83.2918505 C22.1949235,83.9867805 22.0784794,84.2647525 21.7291472,85.0986686 C21.2633709,86.0715707 18.2545183,90.125266 16.9736336,91.237154 C15.6927488,92.3490421 14.5283081,92.9049861 13.7131996,93.1829582 C13.0145352,93.4609302 12.4323149,93.5999162 12.3158708,93.5999162 C10.6856538,94.0168742 9.288325,93.8778882 8.58966058,93.8778882 C7.79324624,93.7420898 4.40125622,90.2142957 3.74888836,89.717411 C3.24074509,89.3303769 40.4774222,59.6413267 40.377616,59.5119741 C40.2307176,59.321588 36.1236,56.0628568 31.8240502,62.4425118 C17.8249944,83.2142552 3.91636394,89.9956019 3.74888836,89.717411 C3.21854636,88.8364687 2.848073,88.0468922 2.65101305,87.6235178 C1.60301643,85.3997417 1.25368422,83.4539375 0.671463876,80.2572593 C0.0892435302,78.0334832 -0.143644608,76.3656511 0.0892435302,74.2808609 Z M28.9764218,19.8234342 C28.6637685,20.0059061 28.6610526,19.4324358 28.8563502,18.7241953 C29.0516479,18.0159548 29.550112,7.27757326 29.5911238,7.20154821 C30.704525,5.13759868 32.4143493,4.71113616 34.2262225,6.02530046 C34.4061966,6.15583696 34.3504433,8.44286376 34.0589625,12.8863809 C32.2486602,16.5900909 30.55448,18.902442 28.9764218,19.8234342 Z M26.1271884,44.2421933 L32.7777544,40.7780425 C34.0923106,39.5823493 34.9139083,37.5895273 34.9139083,35.3974231 L34.9139083,32.6074722 C34.9139083,31.411779 32.6591027,30.3199205 32.1393725,31.3163315 L25.0547364,43.1694289 C23.9044997,44.9629687 24.427168,44.9629687 26.1271884,44.2421933 Z M1.95881287,76.9021188 C2.19304018,78.5069089 2.06122904,77.7883489 2.16364521,78.2947661 C2.36847756,79.1809961 2.74100476,81.1168984 2.9458371,81.8765242 C3.26228824,82.5887733 3.81378181,82.5887733 3.9664586,81.9760002 C3.9664586,81.7227916 4.65900365,79.4103757 5.06866833,78.3975414 C5.37591684,77.6379156 4.36300014,75.0067306 3.64608695,74.5003134 C2.87540542,74.0355234 1.72458557,75.2973288 1.95881287,76.9021188 Z" id="Combined-Shape" fill="#DDDDDD" fill-rule="nonzero"></path>
                            <g id="Group-8" transform="translate(70.171690, 49.204196)">
                                <path d="M62.8408184,26.997647 C62.8408184,26.997647 60.8768232,19.1813136 44.060101,16.3022046 C33.193819,14.4424104 24.5057386,20.95109 14.0559352,24.2652735 C3.60693771,27.5787233 0.984883495,25.2046362 0.984883495,25.2046362 C0.984883495,25.2046362 9.3636398,37.9899381 24.4501752,39.5718562 C39.5365957,41.1529258 58.9270578,24.1541335 58.9270578,24.1541335 C58.9270578,24.1541335 62.8408184,26.997647 62.8408184,26.997647 Z" id="Path" fill="#DDDDDD" fill-rule="nonzero" transform="translate(31.912851, 27.824934) scale(-1, 1) rotate(-36.000000) translate(-31.912851, -27.824934) "></path>
                                <path d="M28.7848312,43.8840717 C31.8844126,44.3429178 36.0927268,44.1895678 41.4097738,43.4240216 C49.3853444,42.2757023 52.6055689,40.3451768 54.0484572,40.0607997 C55.0103828,39.871215 56.4856552,39.871215 58.4742746,40.0607997 C56.5779571,41.5214789 54.5943665,42.6425529 52.5235028,43.4240216 C49.4172071,44.5962247 47.7773135,45.2026535 44.3425715,45.5875517 C40.9078295,45.9724498 38.8354794,45.8378955 34.675703,45.3641302 C31.9025187,45.0482866 29.9388948,44.5549337 28.7848312,43.8840717 Z" id="Path-34" fill="#BEBEBE" transform="translate(43.629553, 42.865122) scale(-1, 1) translate(-43.629553, -42.865122) "></path>
                            </g>
                            <g id="Group-9" transform="translate(76.419667, 44.872042)">
                                <path d="M47.5613966,8.57784415 C36.1499755,6.97278541 26.817455,12.6113452 15.7102963,15.4852253 C4.60400665,18.3584698 1.90063358,16.3044145 1.90063358,16.3044145 C1.90063358,16.3044145 10.4036234,27.3688588 26.2731104,28.7314285 C42.1424984,30.0932639 65.2217563,11.0626048 47.5613966,8.57784415 Z" id="Path-Copy-20" fill="#DDDDDD" fill-rule="nonzero" transform="translate(27.909996, 18.548359) scale(-1, 1) rotate(-20.000000) translate(-27.909996, -18.548359) "></path>
                                <path d="M35.8493903,25.3354669 C38.7522547,26.3869883 41.3281152,27.0357615 43.5769718,27.2817864 C46.9502568,27.6508238 48.2136461,26.8273589 50.7120669,27.7672857 C52.3776808,28.3939036 53.1785729,29.1307787 53.1147433,29.9779111 C51.9367908,30.0310597 50.3987939,29.923763 48.5007527,29.656021 C45.6536908,29.254408 45.5739359,29.1859312 43.3071032,28.5944231 C41.0402705,28.0029151 41.2904557,28.0806953 39.3405335,27.2657504 C38.0405854,26.7224538 36.876871,26.079026 35.8493903,25.3354669 Z" id="Path-35" fill="#BEBEBE" transform="translate(44.483834, 27.663291) scale(-1, 1) translate(-44.483834, -27.663291) "></path>
                            </g>
                            <g id="Group-10" transform="translate(69.367007, 32.822375)">
                                <path d="M49.5520754,1.93351633 C37.7824631,1.27491841 27.3211915,8.24948306 15.3319898,12.4032265 C3.34377577,16.556201 0.756806597,14.591044 0.756806597,14.591044 C0.756806597,14.591044 8.34011075,25.7480639 24.8122752,25.7241633 C41.2844242,25.6994013 67.7666814,2.95359238 49.5520754,1.93351633 Z" id="Path-Copy-21" fill="#DDDDDD" fill-rule="nonzero" transform="translate(28.228118, 13.807091) scale(-1, 1) rotate(-4.000000) translate(-28.228118, -13.807091) "></path>
                                <path d="M39.2012453,16.5054361 C41.3530485,17.3354934 43.4024908,18.1301587 45.3495721,18.8894321 C48.270194,20.0283421 49.2880121,20.0289745 50.8532347,21.5149444 C51.8967164,22.5055909 53.47158,23.8325625 55.5778255,25.4958593 C52.6452772,24.9730745 50.4796625,24.3860479 49.0809816,23.7347796 C46.9829602,22.7578771 46.7741078,22.6085198 45.044926,21.5149444 C43.3157441,20.4213689 42.5584298,19.7509947 41.2173957,18.5842501 C40.3233729,17.8064204 39.6513228,17.1134824 39.2012453,16.5054361 Z" id="Path-36" fill="#BEBEBE" transform="translate(47.389535, 21.000648) scale(-1, 1) translate(-47.389535, -21.000648) "></path>
                            </g>
                        </g>
                        <path d="M89.5467464,127 C86.7540072,120.81307 83.9101435,114.933412 81.0151553,109.361024 C78.120167,103.788637 72.9884088,94.0271767 65.6198807,80.076644 L54.7134935,59.5119741 L66.931627,123.699108 L84.037377,127 L89.5467464,127 Z" id="Path-25" fill="#BEBEBE"></path>
                        <path d="M108.780289,120.391754 C104.143999,114.813027 97.6610781,106.264295 89.3315278,94.7455581 C81.0019775,83.2268211 76.560902,76.8969986 76.0083014,75.7560905 L74.6472068,72.622468 C73.9669484,71.056322 73.4408962,69.4276244 73.0765051,67.7594566 L73.0560624,67.6658707 C72.706875,66.0673043 72.6265475,64.4217189 72.8183812,62.7967431 C73.010473,61.1695808 73.4451876,59.5803648 74.108059,58.0819796 L77.3891399,50.6652722 L77.3891399,50.6652722 L69.7813718,62.8315789 L95.9435814,125.813915 C97.2485655,125.611969 99.3716111,124.885846 102.312718,123.635545 C105.253825,122.385244 107.409682,121.30398 108.780289,120.391754 Z" id="Path-25-Copy" fill="#BEBEBE"></path>
                        <path d="M77.3261805,50.7852513 C77.3543862,52.1573281 78.0339563,53.8416868 79.3648907,55.8383272 C81.3612924,58.8332878 88.582971,68.1356385 91.1682123,70.6176805 C92.8917065,72.2723752 95.5006267,73.6884453 98.9949728,74.8658907 C98.1448092,74.7260554 97.6093847,74.6561378 97.3886994,74.6561378 C96.8585415,74.6561378 96.2727499,74.777258 95.5586779,74.8893706 C93.9943874,75.1349713 93.665715,75.0141304 91.8744475,74.4198469 C90.08318,73.8255635 86.4993523,69.6814058 82.8292785,65.4693037 C79.1592047,61.2572016 78.6830955,60.3273206 78.1504989,58.2739832 C77.7954345,56.9050916 77.5206617,54.4088476 77.3261805,50.7852513 Z" id="Path-26" fill="#BEBEBE"></path>
                        <polygon id="Path-28" fill="#BEBEBE" transform="translate(101.845639, 66.500783) scale(-1, -1) translate(-101.845639, -66.500783) " points="92.5676852 59.1842603 111.123593 73.8173047 107.801919 72.7751285"></polygon>
                        <path d="M104.71242,19.6070175 L100.591105,5.53990087 C100.374368,5.6235905 100.156378,5.72493161 99.9371342,5.8439242 C99.7178905,5.96291678 99.5473703,5.99474072 99.4255736,5.939396 C99.3746828,6.83494177 99.3746828,7.9235753 99.4255736,9.20529659 C99.4764643,10.4870179 99.5701404,11.7576852 99.7066017,13.0172985 C100.294416,14.3136878 101.12503,15.6827273 102.198443,17.1244169 C103.271856,18.5661065 104.109848,19.39364 104.71242,19.6070175 Z" id="Path-29" fill="#BEBEBE"></path>
                        <polygon id="Path-30" fill="#BEBEBE" points="98.9436543 27.1824561 110.481186 45.8982456 100.761174 28.2644243"></polygon>
                        <path d="M128.231235,77.0912281 C129.435382,79.0988448 130.174967,80.4795302 130.449991,81.2332843 C130.725015,81.9870385 130.725015,82.6858852 130.449991,83.3298246" id="Path-31" fill="#BEBEBE"></path>
                    </g>
                    <path d="M103.653984,21.5910257 C98.8665498,22.9161978 97.1324183,21.9327113 93.5678518,21.422284 C89.4185546,20.8281263 85.1279975,22.4845514 85.1279975,22.4845514 C85.1279975,22.4845514 88.5104526,22.4684766 91.0223685,23.1217491 C97.9046278,24.9116143 102.334323,28.1425884 109.530437,28.0430499 C120.043302,27.8972487 111.359723,19.457853 103.653984,21.5910257 Z" id="Path-Copy-11" fill="#DDDDDD" fill-rule="nonzero" transform="translate(99.759896, 24.645469) scale(-1, 1) rotate(-12.000000) translate(-99.759896, -24.645469) "></path>
                    <path d="M100.103975,18.4852126 C95.3165401,19.8103848 93.5824085,18.8268982 90.0178421,18.3164709 C85.8685449,17.7223132 81.5779877,19.3787383 81.5779877,19.3787383 C81.5779877,19.3787383 84.9604429,19.3626635 87.4723588,20.015936 C94.3546181,21.8058012 98.7843135,25.0367754 105.980427,24.9372368 C116.493292,24.7914357 107.809713,16.3520399 100.103975,18.4852126 Z" id="Path-Copy-12" fill="#DDDDDD" fill-rule="nonzero" transform="translate(96.209886, 21.539656) scale(-1, -1) rotate(-12.000000) translate(-96.209886, -21.539656) "></path>
                    <path d="M107.75908,23.8146659 C103.604874,23.2100601 98.5351757,28.9275596 98.5351757,28.9275596 C98.5351757,28.9275596 101.459415,27.9563166 103.975073,28.6156794 C106.553917,29.2916037 109.953912,27.4045672 112.119516,28.2328361 C115.74195,29.6182925 111.327864,24.334069 107.75908,23.8146659 Z" id="Path-Copy-16" fill="#DDDDDD" fill-rule="nonzero" transform="translate(106.003372, 26.348722) scale(-1, -1) rotate(29.000000) translate(-106.003372, -26.348722) "></path>
                </g>
            </g>
        </g>
    </g>
</svg>
