<?xml version="1.0" encoding="UTF-8"?>
<svg width="781px" height="168px" viewBox="0 0 781 168" version="1.1" xmlns="http://www.w3.org/2000/svg" xmlns:xlink="http://www.w3.org/1999/xlink">
    <title>DarkHorse</title>
    <g id="Misc" stroke="none" stroke-width="1" fill="none" fill-rule="evenodd">
        <g id="MetaLanding-Copy" transform="translate(-83.000000, -81.000000)">
            <g id="DarkHorse" transform="translate(83.001940, 81.000000)">
                <g id="Logo" transform="translate(351.157545, 155.988241)" fill="#FFD149" fill-rule="nonzero">
                    <path d="M8.10810285,11.3537208 C10.9970135,11.3537208 13.5347859,9.56271133 13.5347859,5.75681619 C13.5347859,1.95092104 10.9970135,0.159911561 8.10810285,0.159911561 L0,0.159911561 L0,11.3537208 L8.10810285,11.3537208 Z M7.02276625,8.93905624 L2.87294983,8.93905624 L2.87294983,2.57457613 L7.02276625,2.57457613 C9.19343945,2.57457613 10.661836,3.03831965 10.661836,5.75681619 C10.661836,8.47531272 9.19343945,8.93905624 7.02276625,8.93905624 Z M34.3636724,11.3537208 L34.3636724,9.06698549 L25.4256063,9.06698549 L25.4256063,6.79624133 L34.3636724,6.79624133 L34.3636724,4.71739104 L25.4256063,4.71739104 L25.4256063,2.44664688 L34.3636724,2.44664688 L34.3636724,0.159911561 L22.5526565,0.159911561 L22.5526565,11.3537208 L34.3636724,11.3537208 Z M50.148936,11.5136324 C54.6020082,11.5136324 56.8365247,9.80257867 57.1238197,6.55637399 L54.2029874,6.55637399 C53.9316532,8.37936578 52.5271,9.09896781 50.148936,9.09896781 C47.2440645,9.09896781 45.9991195,8.0435515 45.9991195,5.74082503 C45.9991195,3.45408971 47.2281036,2.41466457 50.148936,2.41466457 C52.5430608,2.41466457 53.9316532,3.11827543 54.2029874,4.92527607 L57.1238197,4.92527607 C56.8365247,1.69506254 54.6020082,0 50.148936,0 C45.2329996,0 43.1261697,2.03087682 43.1261697,5.74082503 C43.1261697,9.46676439 45.2329996,11.5136324 50.148936,11.5136324 Z M77.9527063,11.3537208 L77.9527063,9.06698549 L69.0146402,9.06698549 L69.0146402,6.79624133 L77.9527063,6.79624133 L77.9527063,4.71739104 L69.0146402,4.71739104 L69.0146402,2.44664688 L77.9527063,2.44664688 L77.9527063,0.159911561 L66.1416903,0.159911561 L66.1416903,11.3537208 L77.9527063,11.3537208 Z M89.8435267,11.3537208 L89.8435267,2.95836387 L97.4568438,11.3537208 L101.367248,11.3537208 L101.367248,0.159911561 L98.4942979,0.159911561 L98.4942979,8.57125965 L90.86502,0.159911561 L86.9705769,0.159911561 L86.9705769,11.3537208 L89.8435267,11.3537208 Z M118.588986,11.3537208 L118.588986,2.57457613 L124.015669,2.57457613 L124.015669,0.159911561 L110.289353,0.159911561 L110.289353,2.57457613 L115.716036,2.57457613 L115.716036,11.3537208 L118.588986,11.3537208 Z M135.810725,11.3537208 L135.810725,8.36337463 L140.439366,8.36337463 L142.24294,11.3537208 L145.626637,11.3537208 L143.567689,8.02756035 C145.068007,7.43588757 145.993736,6.09263046 145.993736,4.26963867 C145.993736,1.77501832 144.254005,0.159911561 141.716233,0.159911561 L132.937775,0.159911561 L132.937775,11.3537208 L135.810725,11.3537208 Z M140.918191,5.94871006 L135.810725,5.94871006 L135.810725,2.57457613 L140.918191,2.57457613 C141.780076,2.57457613 143.120786,2.57457613 143.120786,4.26963867 C143.120786,5.94871006 141.780076,5.94871006 140.918191,5.94871006 Z M157.373809,11.3537208 L158.570872,8.97103856 L165.258461,8.97103856 L166.455523,11.3537208 L169.631729,11.3537208 L163.853907,0.159911561 L159.975425,0.159911561 L154.213565,11.3537208 L157.373809,11.3537208 Z M164.189085,6.82822364 L159.640248,6.82822364 L161.922647,2.28673532 L164.189085,6.82822364 Z M189.79026,11.3537208 L189.79026,8.93905624 L181.171411,8.93905624 L181.171411,0.159911561 L178.298461,0.159911561 L178.298461,11.3537208 L189.79026,11.3537208 Z M201.760885,11.3537208 L201.760885,0.159911561 L198.887935,0.159911561 L198.887935,11.3537208 L201.760885,11.3537208 Z M223.547421,11.3537208 L223.547421,8.93905624 L215.056259,8.93905624 L223.547421,2.57457613 L223.547421,0.159911561 L210.938364,0.159911561 L210.938364,2.57457613 L219.413566,2.57457613 L210.938364,8.93905624 L210.938364,11.3537208 L223.547421,11.3537208 Z M244.535916,11.3537208 L244.535916,9.06698549 L235.59785,9.06698549 L235.59785,6.79624133 L244.535916,6.79624133 L244.535916,4.71739104 L235.59785,4.71739104 L235.59785,2.44664688 L244.535916,2.44664688 L244.535916,0.159911561 L232.7249,0.159911561 L232.7249,11.3537208 L244.535916,11.3537208 Z M261.66189,11.3537208 C264.5508,11.3537208 267.088573,9.56271133 267.088573,5.75681619 C267.088573,1.95092104 264.5508,0.159911561 261.66189,0.159911561 L253.553787,0.159911561 L253.553787,11.3537208 L261.66189,11.3537208 Z M260.576553,8.93905624 L256.426737,8.93905624 L256.426737,2.57457613 L260.576553,2.57457613 C262.747226,2.57457613 264.215623,3.03831965 264.215623,5.75681619 C264.215623,8.47531272 262.747226,8.93905624 260.576553,8.93905624 Z M294.429479,11.3537208 L294.429479,7.85165763 L302.409896,7.85165763 L302.409896,5.42100191 L294.429479,5.42100191 L294.429479,2.57457613 L303.367545,2.57457613 L303.367545,0.159911561 L291.556529,0.159911561 L291.556529,11.3537208 L294.429479,11.3537208 Z M315.162601,11.3537208 L315.162601,0.159911561 L312.289651,0.159911561 L312.289651,11.3537208 L315.162601,11.3537208 Z M327.292834,11.3537208 L327.292834,2.95836387 L334.906151,11.3537208 L338.816555,11.3537208 L338.816555,0.159911561 L335.943605,0.159911561 L335.943605,8.57125965 L328.314327,0.159911561 L324.419884,0.159911561 L324.419884,11.3537208 L327.292834,11.3537208 Z M350.643532,11.3537208 L351.840594,8.97103856 L358.528183,8.97103856 L359.725246,11.3537208 L362.901451,11.3537208 L357.12363,0.159911561 L353.245148,0.159911561 L347.483287,11.3537208 L350.643532,11.3537208 Z M357.458807,6.82822364 L352.90997,6.82822364 L355.192369,2.28673532 L357.458807,6.82822364 Z M374.441133,11.3537208 L374.441133,2.95836387 L382.05445,11.3537208 L385.964854,11.3537208 L385.964854,0.159911561 L383.091904,0.159911561 L383.091904,8.57125965 L375.462627,0.159911561 L371.568183,0.159911561 L371.568183,11.3537208 L374.441133,11.3537208 Z M401.925687,11.5136324 C406.378759,11.5136324 408.613276,9.80257867 408.900571,6.55637399 L405.979738,6.55637399 C405.708404,8.37936578 404.303851,9.09896781 401.925687,9.09896781 C399.020815,9.09896781 397.775871,8.0435515 397.775871,5.74082503 C397.775871,3.45408971 399.004855,2.41466457 401.925687,2.41466457 C404.319812,2.41466457 405.708404,3.11827543 405.979738,4.92527607 L408.900571,4.92527607 C408.613276,1.69506254 406.378759,0 401.925687,0 C397.009751,0 394.902921,2.03087682 394.902921,5.74082503 C394.902921,9.46676439 397.009751,11.5136324 401.925687,11.5136324 Z M429.729457,11.3537208 L429.729457,9.06698549 L420.791391,9.06698549 L420.791391,6.79624133 L429.729457,6.79624133 L429.729457,4.71739104 L420.791391,4.71739104 L420.791391,2.44664688 L429.729457,2.44664688 L429.729457,0.159911561 L417.918441,0.159911561 L417.918441,11.3537208 L429.729457,11.3537208 Z" id="DECENTRALIZEDFINANCE"></path>
                </g>
                <g id="Group" transform="translate(236.500914, 48.532669)" fill="#222222" fill-rule="nonzero">
                    <path d="M72.3573741,83.2872712 L115.341953,0 L91.222828,0 L57.6709764,67.4626897 L24.1191247,0 L0,0 L42.9845787,83.2872712 L72.3573741,83.2872712 Z M122.357604,83.2872712 L131.312724,65.5589806 L181.341998,65.5589806 L190.297119,83.2872712 L214.058038,83.2872712 L170.834657,0 L141.820066,0 L98.7160857,83.2872712 L122.357604,83.2872712 Z M173.532487,49.9723627 L139.241637,49.9723627 L156.447221,15.6163634 L173.532487,49.9723627 Z M246.753375,83.2872712 L246.753375,61.0376716 L281.013738,61.0376716 L294.363466,83.2872712 L319.408973,83.2872712 L304.169018,58.5390535 C315.274102,54.1367263 322.126174,44.1422537 322.126174,30.5783267 C322.126174,12.0171634 309.249003,0 290.464873,0 L225.488322,0 L225.488322,83.2872712 L246.753375,83.2872712 Z M284.89958,42.6836103 L246.270656,42.6847265 L246.270656,17.6985451 L284.023716,17.6985451 L284.307036,17.6985451 L284.307036,17.6985451 L284.886426,17.699623 C291.249684,17.7229765 300.304724,18.2523231 300.304724,30.2508448 C300.304724,42.1279855 291.262155,42.6597978 284.89958,42.6836103 L284.89958,42.6836103 Z M423.95961,83.2872712 L423.95961,66.2728715 L357.119131,66.2728715 L357.119131,49.3774536 L418.024177,49.3774536 L418.024177,33.9098176 L357.119131,33.9098176 L357.119131,17.0143997 L423.95961,17.0143997 L423.95961,0 L335.634691,0 L335.634691,83.2872712 L423.95961,83.2872712 Z M458.826468,83.2872712 L458.826468,20.8218178 L515.426071,83.2872712 L544.497146,83.2872712 L544.497146,0 L523.138805,0 L523.138805,62.5844352 L466.420545,0 L437.468127,0 L437.468127,83.2872712 L458.826468,83.2872712 Z" id="VAREN"></path>
                </g>
                <g id="Icon-Copy-2">
                    <g id="Group-5-Copy-2">
                        <g id="Group-2-Copy-2" transform="translate(87.101675, 82.500000) scale(-1, 1) translate(-87.101675, -82.500000) ">
                            <path d="M0.115958248,96.5066304 C0.56986175,92.8951829 1.78027109,90.547742 2.53677693,89.103163 C7.22711312,80.2551167 18.2720983,61.6561622 20.2390135,58.2252871 C20.8442182,57.3224252 21.600724,55.8778462 22.2059287,53.8915501 C22.9624345,51.7246816 23.2650369,49.5578131 23.416338,49.016096 C23.5676392,48.1132342 23.5676392,48.1132342 23.7189404,47.3909447 C23.7189404,47.0297999 24.1728439,44.5017867 25.231952,42.3349182 C26.139759,40.3486221 27.1988672,39.0846155 27.955373,38.0011812 C34.3100221,30.7782863 43.0812141,25.5041031 45.052405,19.4022267 C45.3115328,18.6000892 45.6829428,17.7373634 46.1467284,16.8463021 C46.197803,16.7481736 46.7127916,2.30103041 46.7660802,2.20225771 C49.9098631,-3.62487958 56.3974669,3.85054044 61.6955334,4.77586443 C78.1873606,7.66502241 88.6470159,19.0171728 103.020627,30.21266 C103.986844,31.0109905 108.031672,36.0079318 114.878213,42.3349182 C119.442574,46.5529091 125.784543,56.7528617 133.90412,72.9347758 L137.184171,87.3942337 L142.663326,105.736482 C142.518579,106.808941 142.244217,110.125541 141.840239,115.686283 C140.789792,130.14566 133.79909,146.053416 131.983476,153.637456 C127.141839,151.831732 86.9349552,160.928793 68.4762128,164.359668 C65.5398425,164.878846 62.1148964,165.164785 58.2083984,164.898949 C57.1010387,164.823593 72.0384482,135.630179 103.020627,77.3187065 C68.1093894,134.95278 50.2520024,163.666219 49.4484657,163.459023 C44.4554592,162.17155 38.8926233,159.962132 32.7691373,156.414484 C35.5934258,155.571813 49.8373374,136.258914 75.5008722,98.475786 C78.3516939,93.4122868 79.7771048,88.5105934 79.7771048,83.7707058 C79.7771048,78.4371833 77.731042,72.5072275 73.6389162,65.9808383 C73.4669553,69.9905469 73.0417657,73.2721079 72.3633476,75.8255214 C71.3457205,79.6556415 58.6529516,95.246171 54.7356797,96.6872027 C48.4010375,99.0175031 51.0337357,95.0449109 41.350461,98.475786 C39.534847,99.0175031 37.4166306,99.9203649 35.1471131,102.087233 C32.2723909,104.795819 29.2927946,108.213821 29.2927946,108.213821 C28.8388911,109.116683 28.68759,109.477828 28.2336865,110.561262 C27.6284818,111.825269 23.7189404,117.091881 22.0546275,118.53646 C20.3903147,119.981039 18.877303,120.703328 17.8181948,121.064473 C16.9103878,121.425618 16.153882,121.60619 16.0025808,121.60619 C13.8843645,122.147907 12.0687505,121.967335 11.1609435,121.967335 C10.1261255,121.790904 5.71875587,117.207549 4.87110412,116.561991 C4.21085006,116.059151 52.5941877,77.4867631 52.4645049,77.3187065 C52.273633,77.0713545 46.9370651,72.8375698 41.350461,81.126098 C23.1608401,108.113009 5.08871289,116.92342 4.87110412,116.561991 C4.18200622,115.417459 3.70063304,114.391632 3.44458393,113.841578 C2.08287342,110.95242 1.62896992,108.424407 0.872464085,104.271242 C0.115958248,101.382084 -0.186644087,99.215216 0.115958248,96.5066304 Z M37.6504057,25.7548555 C37.2441607,25.9919253 37.2406319,25.2468654 37.4943911,24.3267104 C37.7481504,23.4065555 38.3958279,9.45511486 38.4491165,9.35634216 C39.8958102,6.67483293 42.117464,6.12076745 44.4717146,7.82814626 C44.7055634,7.99774093 44.6331205,10.969075 44.254386,16.7421484 C41.9021765,21.5540551 39.7008497,24.5582908 37.6504057,25.7548555 Z M33.9482649,57.4800149 L42.589653,52.9793465 C44.2977168,51.4258868 45.3652566,48.8367874 45.3652566,45.988778 L45.3652566,42.3640387 C45.3652566,40.8105791 42.4354834,39.3920227 41.7601739,40.6865725 L32.5547784,56.0862659 C31.0602226,58.4164554 31.7393497,58.4164554 33.9482649,57.4800149 Z M2.54517621,99.9122016 C2.84951858,101.997165 2.67825028,101.063603 2.81132435,101.721546 C3.07747249,102.872948 3.56151432,105.388096 3.82766246,106.375012 C4.23884206,107.300375 4.95542318,107.300375 5.1538032,106.504252 C5.1538032,106.17528 6.05365904,103.170961 6.58595531,101.855073 C6.98517752,100.868158 5.66904797,97.4496894 4.73752949,96.7917458 C3.73614732,96.1878847 2.24083383,97.8272382 2.54517621,99.9122016 Z" id="Combined-Shape" fill="#222222" fill-rule="nonzero"></path>
                            <g id="Group-8" transform="translate(91.083055, 64.001101)">
                                <path d="M81.7449154,35.0032684 C81.7449154,35.0032684 79.1925995,24.8477038 57.3424477,21.1059272 C43.2237684,18.6888825 31.9357584,27.1447893 18.3585385,31.4501071 C4.7823658,35.7544716 1.37537961,32.6697515 1.37537961,32.6697515 C1.37537961,32.6697515 12.2627112,49.2816999 31.8647485,51.3379798 C51.4666366,53.3931574 76.6595852,31.3085598 76.6595852,31.3085598 C76.6595852,31.3085598 81.7449154,35.0032684 81.7449154,35.0032684 Z" id="Path" fill="#222222" fill-rule="nonzero" transform="translate(41.560148, 36.076253) scale(-1, 1) rotate(-36.000000) translate(-41.560148, -36.076253) "></path>
                                <path d="M37.4957314,56.9403493 C41.5231609,57.536488 46.9912183,57.3372537 53.8999036,56.3426465 C64.2629315,54.8507355 68.4471182,52.3425725 70.3219297,51.9731062 C71.5718041,51.7267953 73.4886939,51.7267953 76.072599,51.9731062 C73.608626,53.870839 71.0312549,55.3273524 68.3404858,56.3426465 C64.3043322,57.8655875 62.1735425,58.6534674 57.7106232,59.153532 C53.247704,59.6535965 50.5550037,59.4787819 45.1500137,58.8632599 C41.546687,58.452912 38.9952596,57.8119417 37.4957314,56.9403493 Z" id="Path-34" fill="#414141" transform="translate(56.784165, 55.616517) scale(-1, 1) translate(-56.784165, -55.616517) "></path>
                            </g>
                            <g id="Group-9" transform="translate(99.247970, 58.321513)">
                                <path d="M61.8458341,11.1219775 C47.0185562,9.03614959 34.8927686,16.3615247 20.4610204,20.0948737 C6.03040148,23.827397 2.51773778,21.1585941 2.51773778,21.1585941 C2.51773778,21.1585941 13.5664083,35.5341979 34.1861775,37.3051688 C54.805818,39.0751855 84.7925873,14.3510074 61.8458341,11.1219775 Z" id="Path-Copy-20" fill="#222222" fill-rule="nonzero" transform="translate(36.312431, 24.075443) scale(-1, 1) rotate(-20.000000) translate(-36.312431, -24.075443) "></path>
                                <path d="M46.628412,32.8929674 C50.4002381,34.2591173 53.7471729,35.1020116 56.6692163,35.4216503 C61.0522815,35.9011083 62.6938617,34.8312523 65.9401755,36.052417 C68.1043847,36.8665268 69.1450209,37.8238843 69.0620841,38.9244894 C67.531516,38.9935407 65.5331255,38.8541395 63.0669126,38.5062857 C59.3675933,37.984505 59.2639642,37.8955391 56.3185636,37.1270444 C53.3731629,36.3585497 53.6982401,36.4596027 51.164616,35.4008161 C49.4755332,34.6949583 47.9634652,33.8590087 46.628412,32.8929674 Z" id="Path-35" fill="#414141" transform="translate(57.847544, 35.917306) scale(-1, 1) translate(-57.847544, -35.917306) "></path>
                            </g>
                            <g id="Group-10" transform="translate(90.122134, 42.646738)">
                                <path d="M64.3948701,2.50874729 C49.1020696,1.65297866 35.509327,10.7143281 19.931249,16.1108152 C4.35445413,21.5063032 0.993068786,18.953121 0.993068786,18.953121 C0.993068786,18.953121 10.8465056,33.4485396 32.2495402,33.4176404 C53.6525547,33.385623 88.0619481,3.83421304 64.3948701,2.50874729 Z" id="Path-Copy-21" fill="#222222" fill-rule="nonzero" transform="translate(36.687756, 17.934930) scale(-1, 1) rotate(-4.000000) translate(-36.687756, -17.934930) "></path>
                                <path d="M50.9456197,21.4405763 C53.7415572,22.5189972 56.4044923,23.5514363 58.9344252,24.5378939 C62.7293244,26.0175801 64.0518225,26.0184018 66.0855887,27.9489925 C67.4414328,29.2360529 69.487726,30.9600712 72.2244682,33.1210473 C68.4140724,32.4418387 65.6001891,31.6791663 63.7828182,30.8330303 C61.0567619,29.5638263 60.7853904,29.3697795 58.5385844,27.9489925 C56.2917784,26.5282054 55.3077649,25.6572469 53.5652972,24.1413976 C52.4036521,23.1308314 51.5304262,22.2305577 50.9456197,21.4405763 Z" id="Path-36" fill="#414141" transform="translate(61.585044, 27.280812) scale(-1, 1) translate(-61.585044, -27.280812) "></path>
                            </g>
                        </g>
                        <path d="M116.443181,165 C112.814446,156.961863 109.119282,149.322937 105.35769,142.083221 C101.596098,134.843505 94.9281668,122.161293 85.3538972,104.036585 L71.1827236,77.3187065 L87.0583099,160.711439 L109.284602,165 L116.443181,165 Z" id="Path-25" fill="#414141"></path>
                        <path d="M141.434213,156.414484 C135.410066,149.166531 126.986508,138.059911 116.163538,123.094623 C105.340567,108.129334 99.5700726,99.9055493 98.8520529,98.4232672 L97.0835042,94.3519897 C96.1996237,92.3172576 95.5161044,90.2012435 95.0426344,88.0339396 L95.01607,87.9123415 C94.5623567,85.8354736 94.457984,83.6975058 94.707242,81.5863198 C94.9568356,79.472292 95.5216747,77.4075739 96.38296,75.4608849 L100.64624,65.8249599 L100.64624,65.8249599 L90.7611153,81.6315789 L124.754885,163.459023 C126.450511,163.196653 129.209082,162.253264 133.030599,160.628857 C136.852116,159.00445 139.65332,157.599659 141.434213,156.414484 Z" id="Path-25-Copy" fill="#414141"></path>
                        <path d="M100.564434,65.9808383 C100.601083,67.7634578 101.48408,69.9517978 103.213425,72.5458581 C105.807442,76.4369487 115.190903,88.5226799 118.550027,91.7473802 C120.789443,93.8971804 124.179333,95.7369564 128.719699,97.2667084 C127.615042,97.0850326 126.91934,96.9941948 126.632593,96.9941948 C125.943735,96.9941948 125.182589,97.1515557 124.254762,97.2972137 C122.222207,97.6163013 121.795148,97.4593033 119.467671,96.6872027 C117.140194,95.9151022 112.483561,90.5309602 107.714864,85.0585442 C102.946167,79.5861281 102.327537,78.378015 101.635509,75.7102931 C101.174158,73.9318119 100.817133,70.6886603 100.564434,65.9808383 Z" id="Path-26" fill="#414141"></path>
                        <polygon id="Path-28" fill="#414141" transform="translate(132.423701, 86.398654) scale(-1, -1) translate(-132.423701, -86.398654) " points="120.368427 76.8929366 144.478976 95.9043723 140.162971 94.5503639"></polygon>
                        <path d="M136.148643,25.4736842 L130.793627,7.197509 C130.512011,7.30623963 130.228766,7.43790327 129.943893,7.59249994 C129.659019,7.74709661 129.437454,7.78844267 129.279198,7.71653811 C129.213074,8.88004246 129.213074,10.2944089 129.279198,11.9596373 C129.345323,13.6248657 129.467041,15.2757327 129.644351,16.9122382 C130.408125,18.5965236 131.48738,20.3751969 132.882116,22.2482581 C134.276851,24.1213194 135.365693,25.1964614 136.148643,25.4736842 Z" id="Path-29" fill="#414141"></path>
                        <polygon id="Path-30" fill="#414141" points="128.653018 35.3157895 143.644267 59.6315789 131.014606 36.7214962"></polygon>
                        <path d="M166.707727,100.157895 C168.27233,102.766216 169.233308,104.56002 169.590659,105.539306 C169.94801,106.518593 169.94801,107.426544 169.590659,108.263158" id="Path-31" fill="#414141"></path>
                    </g>
                    <path d="M135.773243,28.0514188 C129.552772,29.7729766 127.299518,28.4951657 122.667918,27.8319122 C117.276552,27.0598588 111.701703,29.2118001 111.701703,29.2118001 C111.701703,29.2118001 116.096663,29.1910074 119.360515,30.0398193 C128.302962,32.3654322 134.058732,36.5632936 143.408931,36.4341669 C157.068718,36.2450252 145.785564,25.280171 135.773243,28.0514188 Z" id="Path-Copy-11" fill="#222222" fill-rule="nonzero" transform="translate(130.713567, 32.019918) scale(-1, 1) rotate(-12.000000) translate(-130.713567, -32.019918) "></path>
                    <path d="M131.160551,24.015878 C124.94008,25.7374359 122.686826,24.4596249 118.055226,23.7963715 C112.66386,23.0243181 107.089011,25.1762594 107.089011,25.1762594 C107.089011,25.1762594 111.483971,25.1554667 114.747823,26.0042786 C123.69027,28.3298915 129.44604,32.5277529 138.796239,32.3986262 C152.456026,32.2094844 141.172872,21.2446303 131.160551,24.015878 Z" id="Path-Copy-12" fill="#222222" fill-rule="nonzero" transform="translate(126.100875, 27.984378) scale(-1, -1) rotate(-12.000000) translate(-126.100875, -27.984378) "></path>
                    <path d="M141.107717,30.9398579 C135.71013,30.1545629 129.122671,37.5832773 129.122671,37.5832773 C129.122671,37.5832773 132.922234,36.3212298 136.190828,37.1777605 C139.541521,38.0558048 143.959292,35.6038913 146.773046,36.6798919 C151.479649,38.4797326 145.744661,31.6144869 141.107717,30.9398579 Z" id="Path-Copy-16" fill="#222222" fill-rule="nonzero" transform="translate(138.826231, 34.232495) scale(-1, -1) rotate(29.000000) translate(-138.826231, -34.232495) "></path>
                </g>
            </g>
        </g>
    </g>
</svg>