<?xml version="1.0" encoding="UTF-8"?>
<svg width="258px" height="354px" viewBox="0 0 258 354" version="1.1" xmlns="http://www.w3.org/2000/svg" xmlns:xlink="http://www.w3.org/1999/xlink">
    <title>Varen Finance</title>
    <g id="Page-1" stroke="none" stroke-width="1" fill="none" fill-rule="evenodd">
        <g id="MetaLanding" transform="translate(-393.000000, -240.000000)">
            <g id="Varen-Copy" transform="translate(393.000000, 240.000000)">
                <g id="Logo" transform="translate(6.286926, 347.246437)" fill="#FFD149" fill-rule="nonzero">
                    <path d="M4.74930321,6.65976367 C6.4414762,6.65976367 7.92797071,5.6092094 7.92797071,3.37678158 C7.92797071,1.14435376 6.4414762,0.0937994884 4.74930321,0.0937994884 L0,0.0937994884 L0,6.65976367 L4.74930321,6.65976367 Z M4.11356971,5.2433914 L1.68282397,5.2433914 L1.68282397,1.51017176 L4.11356971,1.51017176 C5.38503671,1.51017176 6.24514674,1.78219028 6.24514674,3.37678158 C6.24514674,4.97137288 5.38503671,5.2433914 4.11356971,5.2433914 Z M20.1284447,6.65976367 L20.1284447,5.31843099 L14.8929923,5.31843099 L14.8929923,3.98647826 L20.1284447,3.98647826 L20.1284447,2.76708491 L14.8929923,2.76708491 L14.8929923,1.43513217 L20.1284447,1.43513217 L20.1284447,0.0937994884 L13.2101684,0.0937994884 L13.2101684,6.65976367 L20.1284447,6.65976367 Z M29.3746277,6.75356316 C31.9830048,6.75356316 33.2918679,5.74990864 33.4601503,3.84577902 L31.7492793,3.84577902 C31.5903459,4.91509319 30.767632,5.33719089 29.3746277,5.33719089 C27.6731057,5.33719089 26.9438819,4.71811426 26.9438819,3.36740163 C26.9438819,2.02606895 27.6637566,1.41637227 29.3746277,1.41637227 C30.776981,1.41637227 31.5903459,1.82909002 31.7492793,2.88902424 L33.4601503,2.88902424 C33.2918679,0.994274577 31.9830048,0 29.3746277,0 C26.4951289,0 25.261058,1.1912535 25.261058,3.36740163 C25.261058,5.55292971 26.4951289,6.75356316 29.3746277,6.75356316 Z M45.6606243,6.65976367 L45.6606243,5.31843099 L40.4251719,5.31843099 L40.4251719,3.98647826 L45.6606243,3.98647826 L45.6606243,2.76708491 L40.4251719,2.76708491 L40.4251719,1.43513217 L45.6606243,1.43513217 L45.6606243,0.0937994884 L38.742348,0.0937994884 L38.742348,6.65976367 L45.6606243,6.65976367 Z M52.6256459,6.65976367 L52.6256459,1.73529053 L57.0851294,6.65976367 L59.3756398,6.65976367 L59.3756398,0.0937994884 L57.6928159,0.0937994884 L57.6928159,5.02765258 L53.2239833,0.0937994884 L50.9428219,0.0937994884 L50.9428219,6.65976367 L52.6256459,6.65976367 Z M69.4632348,6.65976367 L69.4632348,1.51017176 L72.6419023,1.51017176 L72.6419023,0.0937994884 L64.6017434,0.0937994884 L64.6017434,1.51017176 L67.7804109,1.51017176 L67.7804109,6.65976367 L69.4632348,6.65976367 Z M79.5508298,6.65976367 L79.5508298,4.90571324 L82.2620462,4.90571324 L83.3184857,6.65976367 L85.3004784,6.65976367 L84.0944545,4.70873432 C84.9732626,4.36167621 85.5155059,3.57376051 85.5155059,2.50444634 C85.5155059,1.04117432 84.4964625,0.0937994884 83.009968,0.0937994884 L77.8680058,0.0937994884 L77.8680058,6.65976367 L79.5508298,6.65976367 Z M82.5425169,3.48934097 L79.5508298,3.48934097 L79.5508298,1.51017176 L82.5425169,1.51017176 C83.0473641,1.51017176 83.8326819,1.51017176 83.8326819,2.50444634 C83.8326819,3.48934097 83.0473641,3.48934097 82.5425169,3.48934097 Z M92.1813588,6.65976367 L92.8825355,5.2621513 L96.7997757,5.2621513 L97.5009524,6.65976367 L99.3614077,6.65976367 L95.9770618,0.0937994884 L93.7052494,0.0937994884 L90.3302524,6.65976367 L92.1813588,6.65976367 Z M96.1733912,4.00523815 L93.5089199,4.00523815 L94.8458301,1.34133268 L96.1733912,4.00523815 Z M111.169223,6.65976367 L111.169223,5.2433914 L106.120751,5.2433914 L106.120751,0.0937994884 L104.437927,0.0937994884 L104.437927,6.65976367 L111.169223,6.65976367 Z M118.18099,6.65976367 L118.18099,0.0937994884 L116.498166,0.0937994884 L116.498166,6.65976367 L118.18099,6.65976367 Z M130.942405,6.65976367 L130.942405,5.2433914 L125.968725,5.2433914 L130.942405,1.51017176 L130.942405,0.0937994884 L123.556677,0.0937994884 L123.556677,1.51017176 L128.521008,1.51017176 L123.556677,5.2433914 L123.556677,6.65976367 L130.942405,6.65976367 Z M143.236369,6.65976367 L143.236369,5.31843099 L138.000917,5.31843099 L138.000917,3.98647826 L143.236369,3.98647826 L143.236369,2.76708491 L138.000917,2.76708491 L138.000917,1.43513217 L143.236369,1.43513217 L143.236369,0.0937994884 L136.318093,0.0937994884 L136.318093,6.65976367 L143.236369,6.65976367 Z M153.26787,6.65976367 C154.960043,6.65976367 156.446537,5.6092094 156.446537,3.37678158 C156.446537,1.14435376 154.960043,0.0937994884 153.26787,0.0937994884 L148.518567,0.0937994884 L148.518567,6.65976367 L153.26787,6.65976367 Z M152.632136,5.2433914 L150.201391,5.2433914 L150.201391,1.51017176 L152.632136,1.51017176 C153.903603,1.51017176 154.763713,1.78219028 154.763713,3.37678158 C154.763713,4.97137288 153.903603,5.2433914 152.632136,5.2433914 Z M172.461413,6.65976367 L172.461413,4.60555488 L177.135924,4.60555488 L177.135924,3.17980266 L172.461413,3.17980266 L172.461413,1.51017176 L177.696865,1.51017176 L177.696865,0.0937994884 L170.778589,0.0937994884 L170.778589,6.65976367 L172.461413,6.65976367 Z M184.605792,6.65976367 L184.605792,0.0937994884 L182.922968,0.0937994884 L182.922968,6.65976367 L184.605792,6.65976367 Z M191.711049,6.65976367 L191.711049,1.73529053 L196.170533,6.65976367 L198.461043,6.65976367 L198.461043,0.0937994884 L196.778219,0.0937994884 L196.778219,5.02765258 L192.309387,0.0937994884 L190.028225,0.0937994884 L190.028225,6.65976367 L191.711049,6.65976367 Z M205.388669,6.65976367 L206.089845,5.2621513 L210.007086,5.2621513 L210.708262,6.65976367 L212.568718,6.65976367 L209.184372,0.0937994884 L206.912559,0.0937994884 L203.537562,6.65976367 L205.388669,6.65976367 Z M209.380701,4.00523815 L206.71623,4.00523815 L208.05314,1.34133268 L209.380701,4.00523815 Z M219.328061,6.65976367 L219.328061,1.73529053 L223.787544,6.65976367 L226.078055,6.65976367 L226.078055,0.0937994884 L224.395231,0.0937994884 L224.395231,5.02765258 L219.926398,0.0937994884 L217.645237,0.0937994884 L217.645237,6.65976367 L219.328061,6.65976367 Z M235.427077,6.75356316 C238.035454,6.75356316 239.344317,5.74990864 239.5126,3.84577902 L237.801729,3.84577902 C237.642795,4.91509319 236.820081,5.33719089 235.427077,5.33719089 C233.725555,5.33719089 232.996331,4.71811426 232.996331,3.36740163 C232.996331,2.02606895 233.716206,1.41637227 235.427077,1.41637227 C236.82943,1.41637227 237.642795,1.82909002 237.801729,2.88902424 L239.5126,2.88902424 C239.344317,0.994274577 238.035454,0 235.427077,0 C232.547578,0 231.313507,1.1912535 231.313507,3.36740163 C231.313507,5.55292971 232.547578,6.75356316 235.427077,6.75356316 Z M251.713074,6.65976367 L251.713074,5.31843099 L246.477621,5.31843099 L246.477621,3.98647826 L251.713074,3.98647826 L251.713074,2.76708491 L246.477621,2.76708491 L246.477621,1.43513217 L251.713074,1.43513217 L251.713074,0.0937994884 L244.794797,0.0937994884 L244.794797,6.65976367 L251.713074,6.65976367 Z" id="DECENTRALIZEDFINANCE"></path>
                </g>
                <g id="Group" transform="translate(6.286926, 294.624924)" fill="#DDDDDD" fill-rule="nonzero">
                    <path d="M33.4497566,39.0902668 L53.3208992,0 L42.1709803,0 L26.6604496,31.6631161 L11.1499189,0 L0,0 L19.8711426,39.0902668 L33.4497566,39.0902668 Z M56.5641322,39.0902668 L60.7039536,30.7696243 L83.8317556,30.7696243 L87.971577,39.0902668 L98.955903,39.0902668 L78.9743652,0 L65.561344,0 L45.6350038,39.0902668 L56.5641322,39.0902668 Z M80.221533,23.4541601 L64.3693738,23.4541601 L72.3232642,7.32942502 L80.221533,23.4541601 Z M114.070479,39.0902668 L114.070479,28.6475812 L129.908545,28.6475812 L136.079929,39.0902668 L147.658101,39.0902668 L140.612892,27.4748732 C145.74661,25.4086734 148.914223,20.7178414 148.914223,14.3517122 C148.914223,5.64016706 142.961295,0 134.277666,0 L104.239956,0 L104.239956,39.0902668 L114.070479,39.0902668 Z M131.704912,20.0332378 L113.847325,20.0337617 L113.847325,8.30668169 L131.300013,8.30668169 L131.430988,8.30668169 L131.430988,8.30668169 L131.698832,8.30718757 C134.640473,8.31814838 138.826485,8.56659328 138.826485,14.198011 C138.826485,19.7724595 134.646238,20.0220616 131.704912,20.0332378 L131.704912,20.0332378 Z M195.990332,39.0902668 L195.990332,31.1046837 L165.090955,31.1046837 L165.090955,23.1749439 L193.246468,23.1749439 L193.246468,15.9153229 L165.090955,15.9153229 L165.090955,7.98558307 L195.990332,7.98558307 L195.990332,0 L155.159013,0 L155.159013,39.0902668 L195.990332,39.0902668 Z M212.108771,39.0902668 L212.108771,9.7725667 L238.27394,39.0902668 L251.713074,39.0902668 L251.713074,0 L241.839425,0 L241.839425,29.3735433 L215.619402,0 L202.235122,0 L202.235122,39.0902668 L212.108771,39.0902668 Z" id="VAREN"></path>
                </g>
                <g id="Icon-Copy">
                    <g id="Group-5-Copy-2">
                        <g id="Group-2-Copy-2" transform="translate(129.000000, 123.000000) scale(-1, 1) translate(-129.000000, -123.000000) translate(-0.000000, 0.000000)">
                            <path d="M0.171598451,143.882613 C0.843298295,138.498273 2.63449788,134.998452 3.75399762,132.844716 C10.694896,119.653083 27.0395922,91.9237327 29.9502916,86.8086098 C30.8458914,85.4625249 31.9653911,83.3087889 32.8609909,80.347402 C33.9804906,77.1167981 34.4282905,73.8861941 34.6521905,73.0785432 C34.8760904,71.7324582 34.8760904,71.7324582 35.0999904,70.6555902 C35.0999904,70.1171562 35.7716902,66.3481183 37.3389899,63.1175144 C38.6823895,60.1561275 40.2496892,58.2716085 41.3691889,56.6563065 C50.7729868,45.8876268 63.7528564,38.0242992 66.6698831,28.9269562 C67.0533482,27.731042 67.6029716,26.4447964 68.2892953,25.1163049 C68.364877,24.9700042 69.1269724,3.43062715 69.2058305,3.28336603 C73.8580935,-5.40436593 83.4586418,5.74080574 91.2988774,7.12037969 C115.703972,11.4278516 131.182479,28.3528758 152.452975,45.0443294 C153.882811,46.2345677 159.868467,53.6845528 170.000182,63.1175144 C176.754659,69.4061555 186.139692,84.6133574 198.155282,108.73912 L203.009199,130.296857 L211.117415,157.643482 C210.903214,159.242421 210.497205,164.18717 209.899386,172.477731 C208.344903,194.035348 197.999856,217.752366 195.313057,229.059479 C188.148259,226.36731 128.648921,239.930201 101.333128,245.045324 C96.9877998,245.819371 91.9194632,246.24568 86.1385117,245.849342 C84.4998081,245.736993 106.604629,202.212267 152.452975,115.275162 C100.790292,201.202327 74.3644013,244.011454 73.175304,243.702543 C65.786505,241.783038 57.5544558,238.488997 48.4927398,233.199776 C52.6722055,231.94343 73.7507678,203.149653 111.728427,146.818445 C115.947157,139.269228 118.056522,131.961248 118.056522,124.894507 C118.056522,116.94271 115.028698,108.101685 108.973049,98.3714316 C108.718576,104.349543 108.089368,109.242052 107.085425,113.048959 C105.57951,118.75932 86.7963748,142.003382 80.9994798,144.15183 C71.6252887,147.626095 75.5212334,141.703322 61.1916367,146.818445 C58.5048374,147.626095 55.3702381,148.97218 52.0117389,152.202784 C47.7576398,156.241039 43.348345,161.33697 43.348345,161.33697 C42.6766452,162.683055 42.4527452,163.221489 41.7810454,164.836791 C40.8854456,166.72131 35.0999904,174.57335 32.6370909,176.727086 C30.1741915,178.880822 27.935192,179.95769 26.3678924,180.496124 C25.0244927,181.034558 23.904993,181.303775 23.681093,181.303775 C20.5464937,182.111426 17.8596944,181.842209 16.5162947,181.842209 C14.9849403,181.579166 8.4627843,174.745801 7.20840414,173.783332 C6.23134062,173.033643 77.8304365,115.52572 77.6385281,115.275162 C77.3560702,114.906383 69.4588589,108.594195 61.1916367,120.951637 C34.2740971,161.186668 7.53042804,174.32219 7.20840414,173.783332 C6.18865665,172.076939 5.47630636,170.547523 5.09739731,169.727444 C3.08229778,165.419972 2.41059793,161.650934 1.29109819,155.458943 C0.171598451,151.151471 -0.276201446,147.920867 0.171598451,143.882613 Z M55.7161854,38.3981482 C55.115012,38.7515977 55.10979,37.6407812 55.4853104,36.2689137 C55.8608309,34.8970463 56.8192832,14.0967167 56.8981413,13.9494556 C59.0390014,9.95156909 62.3266705,9.12550783 65.8105604,11.6710544 C66.1566166,11.9239047 66.0494135,16.3538936 65.488951,24.9610212 C62.0080817,32.1351367 58.7504932,36.6141791 55.7161854,38.3981482 Z M50.2376478,85.6974768 L63.0254298,78.9873894 C65.5530732,76.6713222 67.1328503,72.8112103 67.1328503,68.5650872 L67.1328503,63.1609305 C67.1328503,60.8448633 62.7972851,58.7299248 61.7979421,60.6599808 L48.1755251,83.6195236 C45.9638372,87.0936244 46.9688296,87.0936244 50.2376478,85.6974768 Z M3.76642713,148.96001 C4.21680199,152.068501 3.96335408,150.676644 4.16028103,151.657578 C4.55413492,153.374213 5.27043436,157.124071 5.66428826,158.595472 C6.27276402,159.975104 7.33318198,159.975104 7.6267506,158.788158 C7.6267506,158.297691 8.95838392,153.818523 9.74609171,151.856655 C10.3368726,150.385254 8.38922508,145.288628 7.01073644,144.307694 C5.52886145,143.407392 3.31605227,145.851519 3.76642713,148.96001 Z" id="Combined-Shape" fill="#DDDDDD" fill-rule="nonzero"></path>
                            <g id="Group-8" transform="translate(134.571101, 95.589121)">
                                <path d="M121.329639,51.8050538 C121.329639,51.8050538 117.596513,36.7163515 85.1980861,31.2671455 C64.2635363,27.7471894 47.4714451,40.3812817 27.3048182,46.855172 C7.13975005,53.3276392 2.10018107,48.7583598 2.10018107,48.7583598 C2.10018107,48.7583598 18.1667508,73.4043154 47.2386264,76.3588952 C76.3102863,79.3118366 113.804348,46.3375144 113.804348,46.3375144 C113.804348,46.3375144 121.329639,51.8050538 121.329639,51.8050538 Z" id="Path" fill="#DDDDDD" fill-rule="nonzero" transform="translate(61.714910, 53.602601) scale(-1, 1) rotate(-36.000000) translate(-61.714910, -53.602601) "></path>
                                <path d="M55.7035956,84.7235861 C61.663505,85.6123747 69.7552982,85.3153345 79.9789753,83.8324655 C95.3144909,81.6081619 101.506374,77.8687189 104.280776,77.3178782 C106.130377,76.950651 108.967047,76.950651 112.790787,77.3178782 C109.144526,80.1472253 105.330456,82.3187544 101.348577,83.8324655 C95.3757569,86.1030321 92.2225512,87.2776894 85.6181911,88.0232402 C79.0138311,88.768791 75.0290933,88.5081583 67.0306291,87.590471 C61.6983196,86.9786795 57.9226418,86.0230512 55.7035956,84.7235861 Z" id="Path-34" fill="#BEBEBE" transform="translate(84.247191, 82.749873) scale(-1, 1) translate(-84.247191, -82.749873) "></path>
                            </g>
                            <g id="Group-9" transform="translate(146.760799, 87.004701)">
                                <path d="M91.6876103,16.4511848 C69.7339757,13.3969065 51.7480758,24.3520591 30.3595491,29.9646942 C8.972698,35.5760951 3.7795049,31.6131197 3.7795049,31.6131197 C3.7795049,31.6131197 20.0927847,52.9878637 50.6269479,55.5525005 C81.1609238,58.1157165 125.663137,21.1794793 91.6876103,16.4511848 Z" id="Path-Copy-20" fill="#DDDDDD" fill-rule="nonzero" transform="translate(53.841124, 35.801586) scale(-1, 1) rotate(-20.000000) translate(-53.841124, -35.801586) "></path>
                                <path d="M69.1113909,48.9877973 C74.6930508,51.0246026 79.645944,52.2812813 83.9700705,52.7578336 C90.4562602,53.4726619 92.8855191,51.8776039 97.6895104,53.6982495 C100.892171,54.9120132 102.432136,56.3393462 102.309403,57.9802483 C100.044423,58.0831975 97.0871457,57.875363 93.4375709,57.3567446 C87.9632087,56.578817 87.8098552,56.446177 83.4511641,55.3004212 C79.0924731,54.1546654 79.5735319,54.3053264 75.8241998,52.7267717 C73.3246452,51.6744019 71.0870422,50.4280771 69.1113909,48.9877973 Z" id="Path-35" fill="#BEBEBE" transform="translate(85.713794, 53.496811) scale(-1, 1) translate(-85.713794, -53.496811) "></path>
                            </g>
                            <g id="Group-10" transform="translate(133.343354, 63.590367)">
                                <path d="M95.3221903,3.71159293 C72.6912866,2.44755633 52.5686246,15.9671959 29.510723,24.0245869 C6.45472105,32.0804876 1.4822307,28.2766543 1.4822307,28.2766543 C1.4822307,28.2766543 16.0529939,49.8796274 47.7270161,49.8169247 C79.4010092,49.7528251 130.345687,5.66942351 95.3221903,3.71159293 Z" id="Path-Copy-21" fill="#DDDDDD" fill-rule="nonzero" transform="translate(54.310629, 26.722902) scale(-1, 1) rotate(-4.000000) translate(-54.310629, -26.722902) "></path>
                                <path d="M75.4128854,31.9579922 C79.5503964,33.5658197 83.4910867,35.1050927 87.2349562,36.5758112 C92.8507606,38.7818889 94.8078324,38.7831139 97.8174598,41.6614491 C99.8238781,43.5803393 102.852043,46.1506938 106.901955,49.3725127 C101.263219,48.3598743 97.0991511,47.2227992 94.4097519,45.9612874 C90.375653,44.0690196 89.9740694,43.7797134 86.6491794,41.6614491 C83.3242893,39.5431848 81.8681169,38.2446648 79.2895617,35.9846713 C77.5705248,34.478009 76.2782994,33.1357827 75.4128854,31.9579922 Z" id="Path-36" fill="#BEBEBE" transform="translate(91.157420, 40.665252) scale(-1, 1) translate(-91.157420, -40.665252) "></path>
                            </g>
                        </g>
                        <path d="M172.524791,246 C167.154881,234.015869 161.686668,222.626924 156.120153,211.833165 C150.553637,201.039407 140.686236,182.131382 126.517948,155.10909 L105.547025,115.275162 L129.040188,239.606146 L161.931314,246 L172.524791,246 Z" id="Path-25" fill="#BEBEBE"></path>
                        <path d="M209.50726,233.199776 C200.592549,222.393738 188.127118,205.834776 172.110966,183.522892 C156.094814,161.211008 147.555465,148.950092 146.492918,146.740144 L143.877419,140.674069 C142.568291,137.637835 141.556303,134.481946 140.855628,131.250601 L140.816556,131.070411 C140.144911,127.972945 139.990408,124.785692 140.359305,121.637786 C140.728687,118.485738 141.565156,115.406221 142.84122,112.50045 L149.14801,98.1390311 L149.14801,98.1390311 L134.519709,121.705263 L184.824696,243.702543 C187.333934,243.311373 191.41615,241.904866 197.071343,239.483023 C202.726537,237.061181 206.871842,234.966765 209.50726,233.199776 Z" id="Path-25-Copy" fill="#BEBEBE"></path>
                        <path d="M149.026951,98.3714316 C149.081185,101.029155 150.38787,104.291771 152.947006,108.159279 C156.785709,113.960542 170.671633,131.979268 175.642563,136.787003 C178.956517,139.99216 183.972978,142.735099 190.691945,145.01582 C189.057241,144.744958 188.027721,144.609527 187.603385,144.609527 C186.583991,144.609527 185.457625,144.844138 184.084599,145.0613 C181.076764,145.537031 180.444789,145.302961 177.00052,144.15183 C173.556251,143.000698 166.665228,134.973432 159.608369,126.814557 C152.55151,118.655682 151.636042,116.854495 150.61196,112.877164 C149.929238,110.22561 149.400902,105.390366 149.026951,98.3714316 Z" id="Path-26" fill="#BEBEBE"></path>
                        <polygon id="Path-28" fill="#BEBEBE" transform="translate(196.173238, 128.812539) scale(-1, -1) translate(-196.173238, -128.812539) " points="178.333485 114.640378 214.01299 142.9847 207.626038 140.965997"></polygon>
                        <path d="M201.685516,37.9789474 L193.761006,10.7308316 C193.344262,10.8929391 192.925108,11.0892376 192.503544,11.3197272 C192.081979,11.5502168 191.754101,11.61186 191.519909,11.5046568 C191.422056,13.239336 191.422056,15.3480277 191.519909,17.830732 C191.617763,20.3134362 191.797884,22.7747288 192.060273,25.2146097 C193.190529,27.7257261 194.787642,30.3775663 196.851613,33.1701303 C198.915584,35.9626944 200.526885,37.5656334 201.685516,37.9789474 Z" id="Path-29" fill="#BEBEBE"></path>
                        <polygon id="Path-30" fill="#BEBEBE" points="190.59327 52.6526316 212.777763 88.9052632 194.088016 54.7484125"></polygon>
                        <path d="M246.907754,149.326316 C249.223101,153.215085 250.645184,155.889484 251.174003,157.349511 C251.702822,158.809539 251.702822,160.163211 251.174003,161.410526" id="Path-31" fill="#BEBEBE"></path>
                    </g>
                    <path d="M199.6636,41.8128335 C190.451504,44.3927113 187.118872,42.4933004 180.26417,41.5152034 C172.285024,40.3766596 164.027678,43.5965392 164.027678,43.5965392 C164.027678,43.5965392 170.533622,43.5556463 175.363217,44.8133871 C188.595558,48.2594013 197.106415,54.5030516 210.947886,54.2895292 C231.169012,53.9768483 214.491168,37.6599224 199.6636,41.8128335 Z" id="Path-Copy-11" fill="#DDDDDD" fill-rule="nonzero" transform="translate(192.166178, 47.715686) scale(-1, 1) rotate(-12.000000) translate(-192.166178, -47.715686) "></path>
                    <path d="M192.837602,35.842413 C183.625506,38.4222908 180.292873,36.5228799 173.438172,35.544783 C165.459026,34.4062392 157.20168,37.6261187 157.20168,37.6261187 C157.20168,37.6261187 163.707624,37.5852258 168.537219,38.8429666 C181.76956,42.2889809 190.280417,48.5326312 204.121888,48.3191088 C224.343014,48.0064278 207.66517,31.6895019 192.837602,35.842413 Z" id="Path-Copy-12" fill="#DDDDDD" fill-rule="nonzero" transform="translate(185.340180, 41.745265) scale(-1, -1) rotate(-12.000000) translate(-185.340180, -41.745265) "></path>
                    <path d="M207.500304,46.1776719 C199.495049,44.9835557 189.764478,56.0088006 189.764478,56.0088006 C189.764478,56.0088006 195.391149,54.1483393 200.240647,55.4384739 C205.211952,56.761013 211.749486,53.1325725 215.925744,54.7472085 C222.911428,57.4480317 214.377436,47.2035098 207.500304,46.1776719 Z" id="Path-Copy-16" fill="#DDDDDD" fill-rule="nonzero" transform="translate(204.146980, 51.048016) scale(-1, -1) rotate(29.000000) translate(-204.146980, -51.048016) "></path>
                </g>
            </g>
        </g>
    </g>
</svg>
