<?xml version="1.0" encoding="UTF-8"?>
<svg width="310px" height="425px" viewBox="0 0 310 425" version="1.1" xmlns="http://www.w3.org/2000/svg" xmlns:xlink="http://www.w3.org/1999/xlink">
    <title>DarkHorse Copy 2</title>
    <g id="Misc" stroke="none" stroke-width="1" fill="none" fill-rule="evenodd">
        <g id="MetaLanding-Copy" transform="translate(-887.000000, -165.000000)">
            <g id="DarkHorse-Copy-2" transform="translate(887.955766, 165.000000)">
                <g id="Logo" transform="translate(7.615035, 416.891909)" fill="#FFD149" fill-rule="nonzero">
                    <path d="M5.68734329,7.99547899 C7.71373922,7.99547899 9.49383289,6.73422033 9.49383289,4.05404568 C9.49383289,1.37387104 7.71373922,0.11261238 5.68734329,0.11261238 L0,0.11261238 L0,7.99547899 L5.68734329,7.99547899 Z M4.92604537,6.29503205 L2.01520038,6.29503205 L2.01520038,1.81305932 L4.92604537,1.81305932 C6.44864121,1.81305932 7.47863251,2.13963522 7.47863251,4.05404568 C7.47863251,5.96845615 6.44864121,6.29503205 4.92604537,6.29503205 Z M24.1040358,7.99547899 L24.1040358,6.38512195 L17.8345236,6.38512195 L17.8345236,4.78602615 L24.1040358,4.78602615 L24.1040358,3.32206521 L17.8345236,3.32206521 L17.8345236,1.72296942 L24.1040358,1.72296942 L24.1040358,0.11261238 L15.8193232,0.11261238 L15.8193232,7.99547899 L24.1040358,7.99547899 Z M35.1764426,8.10809137 C38.3000032,8.10809137 39.8673812,6.9031389 40.0689013,4.61710758 L38.0201142,4.61710758 C37.8297898,5.90088872 36.8445807,6.40764443 35.1764426,6.40764443 C33.1388511,6.40764443 32.2655976,5.66440272 32.2655976,4.04278445 C32.2655976,2.43242741 33.1276555,1.70044694 35.1764426,1.70044694 C36.8557762,1.70044694 37.8297898,2.19594141 38.0201142,3.46846131 L40.0689013,3.46846131 C39.8673812,1.19369123 38.3000032,0 35.1764426,0 C31.7282108,0 30.2503972,1.43017723 30.2503972,4.04278445 C30.2503972,6.6666529 31.7282108,8.10809137 35.1764426,8.10809137 Z M54.6791042,7.99547899 L54.6791042,6.38512195 L48.409592,6.38512195 L48.409592,4.78602615 L54.6791042,4.78602615 L54.6791042,3.32206521 L48.409592,3.32206521 L48.409592,1.72296942 L54.6791042,1.72296942 L54.6791042,0.11261238 L46.3943916,0.11261238 L46.3943916,7.99547899 L54.6791042,7.99547899 Z M63.0197949,7.99547899 L63.0197949,2.08332903 L68.3600759,7.99547899 L71.1029875,7.99547899 L71.1029875,0.11261238 L69.0877872,0.11261238 L69.0877872,6.03602357 L63.7363106,0.11261238 L61.0045945,0.11261238 L61.0045945,7.99547899 L63.0197949,7.99547899 Z M83.1829945,7.99547899 L83.1829945,1.81305932 L86.9894841,1.81305932 L86.9894841,0.11261238 L77.3613045,0.11261238 L77.3613045,1.81305932 L81.1677941,1.81305932 L81.1677941,7.99547899 L83.1829945,7.99547899 Z M95.2630014,7.99547899 L95.2630014,5.88962748 L98.5097131,5.88962748 L99.7748111,7.99547899 L102.148269,7.99547899 L100.704042,5.65314148 C101.756425,5.23647567 102.405767,4.29053168 102.405767,3.00675055 C102.405767,1.24999742 101.185451,0.11261238 99.4053577,0.11261238 L93.247801,0.11261238 L93.247801,7.99547899 L95.2630014,7.99547899 Z M98.8455799,4.18918054 L95.2630014,4.18918054 L95.2630014,1.81305932 L98.8455799,1.81305932 C99.45014,1.81305932 100.390567,1.81305932 100.390567,3.00675055 C100.390567,4.18918054 99.45014,4.18918054 98.8455799,4.18918054 Z M110.3882,7.99547899 L111.227867,6.31755452 L115.918805,6.31755452 L116.758472,7.99547899 L118.986388,7.99547899 L114.933596,0.11261238 L112.213076,0.11261238 L108.17148,7.99547899 L110.3882,7.99547899 Z M115.168703,4.80854863 L111.977969,4.80854863 L113.578934,1.61035704 L115.168703,4.80854863 Z M133.126378,7.99547899 L133.126378,6.29503205 L127.080777,6.29503205 L127.080777,0.11261238 L125.065576,0.11261238 L125.065576,7.99547899 L133.126378,7.99547899 Z M141.523046,7.99547899 L141.523046,0.11261238 L139.507846,0.11261238 L139.507846,7.99547899 L141.523046,7.99547899 Z M156.804983,7.99547899 L156.804983,6.29503205 L150.848946,6.29503205 L156.804983,1.81305932 L156.804983,0.11261238 L147.960492,0.11261238 L147.960492,1.81305932 L153.905333,1.81305932 L147.960492,6.29503205 L147.960492,7.99547899 L156.804983,7.99547899 Z M171.527141,7.99547899 L171.527141,6.38512195 L165.257629,6.38512195 L165.257629,4.78602615 L171.527141,4.78602615 L171.527141,3.32206521 L165.257629,3.32206521 L165.257629,1.72296942 L171.527141,1.72296942 L171.527141,0.11261238 L163.242429,0.11261238 L163.242429,7.99547899 L171.527141,7.99547899 Z M183.539975,7.99547899 C185.566371,7.99547899 187.346464,6.73422033 187.346464,4.05404568 C187.346464,1.37387104 185.566371,0.11261238 183.539975,0.11261238 L177.852632,0.11261238 L177.852632,7.99547899 L183.539975,7.99547899 Z M182.778677,6.29503205 L179.867832,6.29503205 L179.867832,1.81305932 L182.778677,1.81305932 C184.301273,1.81305932 185.331264,2.13963522 185.331264,4.05404568 C185.331264,5.96845615 184.301273,6.29503205 182.778677,6.29503205 Z M206.524455,7.99547899 L206.524455,5.52926786 L212.122234,5.52926786 L212.122234,3.81755969 L206.524455,3.81755969 L206.524455,1.81305932 L212.793967,1.81305932 L212.793967,0.11261238 L204.509255,0.11261238 L204.509255,7.99547899 L206.524455,7.99547899 Z M221.067485,7.99547899 L221.067485,0.11261238 L219.052284,0.11261238 L219.052284,7.99547899 L221.067485,7.99547899 Z M229.576109,7.99547899 L229.576109,2.08332903 L234.91639,7.99547899 L237.659301,7.99547899 L237.659301,0.11261238 L235.644101,0.11261238 L235.644101,6.03602357 L230.292624,0.11261238 L227.560908,0.11261238 L227.560908,7.99547899 L229.576109,7.99547899 Z M245.95521,7.99547899 L246.794877,6.31755452 L251.485815,6.31755452 L252.325482,7.99547899 L254.553398,7.99547899 L250.500606,0.11261238 L247.780086,0.11261238 L243.738489,7.99547899 L245.95521,7.99547899 Z M250.735713,4.80854863 L247.544979,4.80854863 L249.145944,1.61035704 L250.735713,4.80854863 Z M262.647787,7.99547899 L262.647787,2.08332903 L267.988068,7.99547899 L270.730979,7.99547899 L270.730979,0.11261238 L268.715779,0.11261238 L268.715779,6.03602357 L263.364302,0.11261238 L260.632586,0.11261238 L260.632586,7.99547899 L262.647787,7.99547899 Z M281.926537,8.10809137 C285.050098,8.10809137 286.617476,6.9031389 286.818996,4.61710758 L284.770209,4.61710758 C284.579884,5.90088872 283.594675,6.40764443 281.926537,6.40764443 C279.888946,6.40764443 279.015692,5.66440272 279.015692,4.04278445 C279.015692,2.43242741 279.87775,1.70044694 281.926537,1.70044694 C283.605871,1.70044694 284.579884,2.19594141 284.770209,3.46846131 L286.818996,3.46846131 C286.617476,1.19369123 285.050098,0 281.926537,0 C278.478305,0 277.000492,1.43017723 277.000492,4.04278445 C277.000492,6.6666529 278.478305,8.10809137 281.926537,8.10809137 Z M301.429199,7.99547899 L301.429199,6.38512195 L295.159686,6.38512195 L295.159686,4.78602615 L301.429199,4.78602615 L301.429199,3.32206521 L295.159686,3.32206521 L295.159686,1.72296942 L301.429199,1.72296942 L301.429199,0.11261238 L293.144486,0.11261238 L293.144486,7.99547899 L301.429199,7.99547899 Z" id="DECENTRALIZEDFINANCE"></path>
                </g>
                <g id="Group" transform="translate(7.615035, 353.716363)" fill="#222222" fill-rule="nonzero">
                    <path d="M40.0564547,46.930405 L63.8523684,0 L50.5002169,0 L31.9261842,38.0136281 L13.3521516,0 L0,0 L23.7959137,46.930405 L40.0564547,46.930405 Z M67.736176,46.930405 L72.693658,36.9409331 L100.389458,36.9409331 L105.34694,46.930405 L118.500792,46.930405 L94.5726786,0 L78.5104369,0 L54.6484234,46.930405 L67.736176,46.930405 Z M96.0661759,28.158243 L77.0830394,28.158243 L86.6079114,8.79945094 L96.0661759,28.158243 Z M136.600665,46.930405 L136.600665,34.3932825 L155.566924,34.3932825 L162.957225,46.930405 L176.822214,46.930405 L168.385499,32.9853704 C174.533183,30.5047633 178.326434,24.8731147 178.326434,17.230163 C178.326434,6.77138701 171.197737,0 160.798995,0 L124.828504,0 L124.828504,46.930405 L136.600665,46.930405 Z M157.718094,24.0512036 L136.333435,24.0518326 L136.333435,9.97271107 L157.233223,9.97271107 L157.390066,9.97271107 L157.390066,9.97271107 L157.710812,9.97331842 C161.23346,9.98647757 166.246257,10.2847518 166.246257,17.0456347 C166.246257,23.7381222 161.240364,24.0377858 157.718094,24.0512036 L157.718094,24.0512036 Z M234.700597,46.930405 L234.700597,37.3431937 L197.698251,37.3431937 L197.698251,27.8230258 L231.41479,27.8230258 L231.41479,19.1073792 L197.698251,19.1073792 L197.698251,9.58721131 L234.700597,9.58721131 L234.700597,0 L185.80464,0 L185.80464,46.930405 L234.700597,46.930405 Z M254.002607,46.930405 L254.002607,11.7326013 L285.335688,46.930405 L301.429199,46.930405 L301.429199,0 L289.605395,0 L289.605395,35.2648472 L258.206626,0 L242.178803,0 L242.178803,46.930405 L254.002607,46.930405 Z" id="VAREN"></path>
                </g>
                <g id="Icon-Copy">
                    <g id="Group-5-Copy-2">
                        <g id="Group-2-Copy-2" transform="translate(154.522117, 147.669492) scale(-1, 1) translate(-154.522117, -147.669492) ">
                            <path d="M0.205491047,172.740425 C1.00985906,166.276175 3.15484044,162.074412 4.49545381,159.488712 C12.8072567,143.6513 32.3802117,110.360414 35.8658065,104.219376 C36.9382972,102.603314 38.2789105,100.017614 39.3514012,96.4622764 C40.6920146,92.5837265 41.2282599,88.7051766 41.4963826,87.7355391 C41.7645053,86.1194766 41.7645053,86.1194766 42.0326279,84.8266267 C42.0326279,84.1802017 42.836996,79.6552268 44.7138547,75.7766769 C46.3225907,72.2213395 48.1994494,69.958852 49.5400628,68.0195771 C60.801215,55.0910774 76.3447529,45.6506417 79.8379248,34.7286903 C80.2971285,33.2929177 80.9553086,31.7486962 81.7771889,30.1537559 C81.8676988,29.9781124 82.7803165,4.11869079 82.8747499,3.94189425 C88.4458864,-6.48829242 99.9426496,6.89221028 109.331419,8.54847844 C138.55679,13.7198783 157.092475,34.0394695 182.564129,54.0786441 C184.276373,55.5076025 191.444263,64.4517936 203.577104,75.7766769 C211.665665,83.3265991 222.904347,101.583833 237.293149,130.548379 L243.105769,156.429843 L252.815447,189.261242 C252.558939,191.180872 252.072738,197.117366 251.356844,207.070722 C249.495333,232.952042 237.107025,261.425863 233.889553,275.000787 C225.309628,271.768663 154.058511,288.051795 121.347545,294.192832 C116.143966,295.122126 110.074577,295.633937 103.151824,295.158108 C101.189458,295.023226 127.660226,242.768964 182.564129,138.395322 C120.697492,241.556466 89.0521958,292.951605 87.6282384,292.580737 C78.7800697,290.276246 68.9220994,286.321536 58.070594,279.971483 C63.0755506,278.463158 88.3173628,243.894357 133.796031,176.265082 C138.848007,167.201756 141.373995,158.428052 141.373995,149.94397 C141.373995,140.397321 137.748142,129.783096 130.496435,118.101295 C130.191701,125.278406 129.438218,131.152181 128.235984,135.72262 C126.432635,142.57828 103.939622,170.484287 96.9977758,173.063637 C85.772078,177.234719 90.437515,170.124044 73.277664,176.265082 C70.0601919,177.234719 66.3064745,178.850782 62.2846344,182.729332 C57.1903036,187.577519 51.9101241,193.695515 51.9101241,193.695515 C51.1057561,195.311578 50.8376334,195.958003 50.0332654,197.897277 C48.9607747,200.159765 42.0326279,209.586649 39.0832785,212.172349 C36.1339291,214.758049 33.4527024,216.050899 31.5758437,216.697324 C29.9671077,217.343749 28.6264943,217.666961 28.3583716,217.666961 C24.6046542,218.636599 21.3871822,218.313386 19.7784461,218.313386 C17.9446323,217.997586 10.1342781,209.793688 8.63214394,208.638181 C7.46209953,207.738131 93.2028113,138.696132 92.9729988,138.395322 C92.6347524,137.952579 83.1777543,130.374387 73.277664,145.210299 C41.0436116,193.515067 9.01777114,209.285115 8.63214394,208.638181 C7.410985,206.589546 6.55793763,204.753383 6.10418984,203.768824 C3.69108579,198.597424 2.88671777,194.072449 1.54610441,186.638562 C0.205491047,181.467162 -0.330754297,177.588612 0.205491047,172.740425 Z M66.7207502,46.0994717 C66.0008385,46.5238108 65.994585,45.1902034 66.4442749,43.5431874 C66.8939648,41.8961714 68.0417221,16.9240243 68.1361555,16.7472277 C70.6998593,11.9475053 74.6368795,10.9557651 78.8088763,14.0118591 C79.2232825,14.3154223 79.0949056,19.6339118 78.4237455,29.9673277 C74.2553659,38.5803195 70.3543675,43.9577009 66.7207502,46.0994717 Z M60.1601406,102.885389 L75.4736515,94.8294929 C78.5005325,92.0489038 80.3923331,87.4145886 80.3923331,82.316842 L80.3923331,75.8288007 C80.3923331,73.0482116 75.2004457,70.5090905 74.0037213,72.8262481 L57.6907259,100.390671 C55.0422051,104.561555 56.2456947,104.561555 60.1601406,102.885389 Z M4.51033828,178.83617 C5.04966717,182.568115 4.74616048,180.897101 4.98198269,182.074776 C5.4536271,184.135708 6.31140363,188.637656 6.78304804,190.404168 C7.51170451,192.060507 8.78156679,192.060507 9.13311847,190.6355 C9.13311847,190.046663 10.7277641,184.669131 11.671053,182.313781 C12.3785196,180.547268 10.0461901,174.428437 8.39543467,173.250762 C6.62087293,172.169891 3.97100939,175.104224 4.51033828,178.83617 Z" id="Combined-Shape" fill="#222222" fill-rule="nonzero"></path>
                            <g id="Group-8" transform="translate(161.060892, 114.830288)">
                                <path d="M145.441124,62.0388416 C145.441124,62.0388416 140.98848,43.9452155 102.164734,37.4558882 C77.0784024,33.2640674 56.9336224,48.4431714 32.7531841,56.2379529 C8.5746159,64.031025 2.54221773,58.5574462 2.54221773,58.5574462 C2.54221773,58.5574462 21.7620506,88.0971831 56.6023271,91.5990125 C91.4423472,95.098877 136.429347,55.4914025 136.429347,55.4914025 C136.429347,55.4914025 145.441124,62.0388416 145.441124,62.0388416 Z" id="Path" fill="#222222" fill-rule="nonzero" transform="translate(73.991671, 64.277597) scale(-1, 1) rotate(-36.000000) translate(-73.991671, -64.277597) "></path>
                                <path d="M66.7951683,101.646833 C73.9322259,102.713881 83.6222381,102.357265 95.8652049,100.576984 C114.229655,97.9065635 121.644504,93.4171192 124.966881,92.7557992 C127.181799,92.3149191 130.578743,92.3149191 135.157713,92.7557992 C130.791276,96.1526142 126.223885,98.759676 121.45554,100.576984 C114.303022,103.302947 110.527023,104.7132 102.618228,105.608282 C94.709434,106.503364 89.9376663,106.190458 80.3594167,105.088714 C73.9739169,104.354219 69.4525008,103.206925 66.7951683,101.646833 Z" id="Path-34" fill="#414141" transform="translate(100.976441, 99.277262) scale(-1, 1) translate(-100.976441, -99.277262) "></path>
                            </g>
                            <g id="Group-9" transform="translate(175.702477, 104.476300)">
                                <path d="M109.865567,19.6973776 C83.5710014,16.0531565 62.0155091,29.2192686 36.3893615,35.9765893 C10.7652223,42.7324273 4.54835035,37.9811307 4.54835035,37.9811307 C4.54835035,37.9811307 24.0685324,63.6192523 60.6419223,66.6673801 C97.2150893,69.7138027 150.559134,25.3389663 109.865567,19.6973776 Z" id="Path-Copy-20" fill="#222222" fill-rule="nonzero" transform="translate(64.518754, 42.944262) scale(-1, 1) rotate(-20.000000) translate(-64.518754, -42.944262) "></path>
                                <path d="M82.8068656,58.7915301 C89.4909652,61.2368472 95.4221098,62.7455717 100.600299,63.3177036 C108.367583,64.1759015 111.276648,62.2609307 117.029481,64.446734 C120.864703,65.9039362 122.708827,67.6175422 122.561854,69.5875518 C119.849515,69.7111491 116.308142,69.4616301 111.937736,68.8389951 C105.382127,67.9050425 105.198484,67.7457995 99.9789031,66.3702453 C94.7593222,64.994691 95.3353955,65.1755692 90.8455287,63.2804118 C87.8522843,62.0169735 85.1727299,60.5206796 82.8068656,58.7915301 Z" id="Path-35" fill="#414141" transform="translate(102.688428, 64.204894) scale(-1, 1) translate(-102.688428, -64.204894) "></path>
                            </g>
                            <g id="Group-10" transform="translate(159.670999, 76.347628)">
                                <path d="M114.161272,4.44427787 C87.0604462,2.93154784 62.9601631,19.1668289 35.3460152,28.8450306 C7.73414245,38.5214426 1.78026454,33.9558069 1.78026454,33.9558069 C1.78026454,33.9558069 19.2245408,59.8881622 57.1550178,59.8064207 C95.0854603,59.7224676 156.102403,6.78730878 114.161272,4.44427787 Z" id="Path-Copy-21" fill="#222222" fill-rule="nonzero" transform="translate(65.045464, 32.076014) scale(-1, 1) rotate(-4.000000) translate(-65.045464, -32.076014) "></path>
                                <path d="M90.3169145,38.364385 C95.2716298,40.2946864 99.9906502,42.1426836 104.473975,43.9083767 C111.198963,46.5569163 113.542579,46.558387 117.146641,50.0140154 C119.549349,52.3177677 123.175611,55.4036454 128.025425,59.2716483 C121.272976,58.0559101 116.286458,56.6907776 113.065873,55.1762507 C108.234995,52.9044602 107.754094,52.5571294 103.772501,50.0140154 C99.7909085,47.4709015 98.0471259,45.9119439 94.9592773,43.1986749 C92.9007116,41.3898289 91.3532573,39.7783989 90.3169145,38.364385 Z" id="Path-36" fill="#414141" transform="translate(109.171170, 48.818017) scale(-1, 1) translate(-109.171170, -48.818017) "></path>
                            </g>
                        </g>
                        <path d="M206.686722,295.338983 C200.256196,280.951255 193.70795,267.278087 187.041986,254.319478 C180.376022,241.36087 168.559699,218.660557 151.593017,186.21854 L126.480105,138.395322 L154.613428,287.662746 L194.000916,295.338983 L206.686722,295.338983 Z" id="Path-25" fill="#414141"></path>
                        <path d="M250.97364,279.971483 C240.298174,266.998131 225.370682,247.118022 206.191163,220.331156 C187.011643,193.544289 176.785678,178.824263 175.513266,176.171077 L172.381847,168.889918 C170.81369,165.24365 169.601623,161.454351 168.762548,157.574874 L168.715856,157.358992 C167.911462,153.639859 167.726422,149.813461 168.168195,146.034065 C168.610545,142.249735 169.612472,138.552083 171.141185,135.062118 L178.692768,117.822283 L178.692768,117.822283 L161.175215,146.115076 L221.415995,292.580737 C224.420835,292.111111 229.309334,290.422509 236.081491,287.514929 C242.853648,284.60735 247.817697,282.092867 250.97364,279.971483 Z" id="Path-25-Copy" fill="#414141"></path>
                        <path d="M178.547798,118.101295 C178.612744,121.292065 180.177514,125.209047 183.242107,129.852242 C187.838997,136.817035 204.467545,158.449686 210.42029,164.221685 C214.388786,168.069683 220.396053,171.36276 228.442091,174.100914 C226.484515,173.775726 225.251653,173.613132 224.743506,173.613132 C223.522771,173.613132 222.173934,173.894798 220.529721,174.155516 C216.927805,174.726662 216.171008,174.445646 212.046458,173.063637 C207.921908,171.681629 199.66983,162.044374 191.219164,152.249115 C182.768497,142.453855 181.672214,140.291414 180.445864,135.51637 C179.628297,132.333007 178.995608,126.527982 178.547798,118.101295 Z" id="Path-26" fill="#414141"></path>
                        <polygon id="Path-28" fill="#414141" transform="translate(235.006000, 154.647823) scale(-1, -1) translate(-235.006000, -154.647823) " points="213.642698 137.633222 256.369301 171.662423 248.720855 169.238838"></polygon>
                        <path d="M241.607015,45.5961939 L232.117326,12.8830605 C231.61827,13.0776811 231.116328,13.3133502 230.611501,13.5900679 C230.106673,13.8667857 229.714035,13.9407923 229.433587,13.812088 C229.316407,15.8946831 229.316407,18.4263045 229.433587,21.4069522 C229.550768,24.3876 229.766465,27.3425416 230.080679,30.2717772 C231.434173,33.2865355 233.346734,36.470242 235.818362,39.8228966 C238.28999,43.1755512 240.219541,45.0999836 241.607015,45.5961939 Z" id="Path-29" fill="#414141"></path>
                        <polygon id="Path-30" fill="#414141" points="228.323926 63.2129051 254.890104 106.736545 232.508924 65.7290263"></polygon>
                        <path d="M295.761146,179.275944 C298.5338,183.944664 300.23676,187.155454 300.870026,188.908312 C301.503293,190.66117 301.503293,192.286341 300.870026,193.783824" id="Path-31" fill="#414141"></path>
                    </g>
                    <path d="M239.191267,50.1952369 C228.156861,53.2979285 224.166737,51.0198829 215.957858,49.8500002 C206.402396,48.4882103 196.511043,52.3585881 196.511043,52.3585881 C196.511043,52.3585881 204.302868,52.3054584 210.086218,53.8122924 C225.931699,57.9407834 236.120791,65.4305812 252.698065,65.1656655 C276.915952,64.7777544 256.951981,45.2007367 239.191267,50.1952369 Z" id="Path-Copy-11" fill="#222222" fill-rule="nonzero" transform="translate(230.208927, 57.276365) scale(-1, 1) rotate(-12.000000) translate(-230.208927, -57.276365) "></path>
                    <path d="M231.017058,43.0461906 C219.982653,46.1488822 215.992528,43.8708366 207.78365,42.7009539 C198.228188,41.339164 188.336834,45.2095418 188.336834,45.2095418 C188.336834,45.2095418 196.128659,45.1564121 201.912009,46.6632461 C217.757491,50.7917371 227.946583,58.2815349 244.523857,58.0166192 C268.741743,57.6287081 248.777772,38.0516904 231.017058,43.0461906 Z" id="Path-Copy-12" fill="#222222" fill-rule="nonzero" transform="translate(222.034719, 50.127319) scale(-1, -1) rotate(-12.000000) translate(-222.034719, -50.127319) "></path>
                    <path d="M248.552211,55.4593685 C238.958537,54.0162454 227.313363,67.2322542 227.313363,67.2322542 C227.313363,67.2322542 234.052993,65.007271 239.865472,66.561515 C245.823946,68.1547974 253.652709,63.8096888 258.658914,65.7524132 C267.032859,69.0020342 256.793917,56.6991225 248.552211,55.4593685 Z" id="Path-Copy-16" fill="#222222" fill-rule="nonzero" transform="translate(244.545974, 61.290744) scale(-1, -1) rotate(29.000000) translate(-244.545974, -61.290744) "></path>
                </g>
            </g>
        </g>
    </g>
</svg>