<?xml version="1.0" encoding="UTF-8"?>
<svg width="86px" height="118px" viewBox="0 0 86 118" version="1.1" xmlns="http://www.w3.org/2000/svg" xmlns:xlink="http://www.w3.org/1999/xlink">
    <title>Varen Finance</title>
    <g id="Page-1" stroke="none" stroke-width="1" fill="none" fill-rule="evenodd">
        <g id="MetaLanding" transform="translate(-479.000000, -317.000000)">
            <g id="Varen-Copy" transform="translate(479.000000, 317.000000)">
                <g id="Logo" transform="translate(2.094704, 115.748812)" fill="#FFD149" fill-rule="nonzero">
                    <path d="M1.58311878,2.21992122 C2.14718275,2.21992122 2.64268646,1.86973647 2.64268646,1.12559386 C2.64268646,0.381451253 2.14718275,0.0312664961 1.58311878,0.0312664961 L0,0.0312664961 L0,2.21992122 L1.58311878,2.21992122 Z M1.37120524,1.74779713 L0.560947598,1.74779713 L0.560947598,0.503390588 L1.37120524,0.503390588 C1.79503231,0.503390588 2.08173886,0.594063426 2.08173886,1.12559386 C2.08173886,1.65712429 1.79503231,1.74779713 1.37120524,1.74779713 Z M6.7095566,2.21992122 L6.7095566,1.77281033 L4.9643863,1.77281033 L4.9643863,1.32882609 L6.7095566,1.32882609 L6.7095566,0.922361636 L4.9643863,0.922361636 L4.9643863,0.478377391 L6.7095566,0.478377391 L6.7095566,0.0312664961 L4.4034387,0.0312664961 L4.4034387,2.21992122 L6.7095566,2.21992122 Z M9.79165208,2.25118772 C10.6611209,2.25118772 11.0974134,1.91663621 11.1535082,1.28192634 L10.5832115,1.28192634 C10.5302331,1.6383644 10.255992,1.77906363 9.79165208,1.77906363 C9.22447173,1.77906363 8.98139444,1.57270475 8.98139444,1.12246721 C8.98139444,0.675356316 9.22135535,0.472124091 9.79165208,0.472124091 C10.2591084,0.472124091 10.5302331,0.609696674 10.5832115,0.963008081 L11.1535082,0.963008081 C11.0974134,0.331424859 10.6611209,0 9.79165208,0 C8.83180841,0 8.42044684,0.397084501 8.42044684,1.12246721 C8.42044684,1.85097657 8.83180841,2.25118772 9.79165208,2.25118772 Z M15.2203783,2.21992122 L15.2203783,1.77281033 L13.475208,1.77281033 L13.475208,1.32882609 L15.2203783,1.32882609 L15.2203783,0.922361636 L13.475208,0.922361636 L13.475208,0.478377391 L15.2203783,0.478377391 L15.2203783,0.0312664961 L12.9142604,0.0312664961 L12.9142604,2.21992122 L15.2203783,2.21992122 Z M17.5420782,2.21992122 L17.5420782,0.578430178 L19.0285893,2.21992122 L19.7921013,2.21992122 L19.7921013,0.0312664961 L19.2311537,0.0312664961 L19.2311537,1.67588419 L17.7415262,0.0312664961 L16.9811306,0.0312664961 L16.9811306,2.21992122 L17.5420782,2.21992122 Z M23.1546706,2.21992122 L23.1546706,0.503390588 L24.2142383,0.503390588 L24.2142383,0.0312664961 L21.5341553,0.0312664961 L21.5341553,0.503390588 L22.593723,0.503390588 L22.593723,2.21992122 L23.1546706,2.21992122 Z M26.5172399,2.21992122 L26.5172399,1.63523775 L27.4209888,1.63523775 L27.7731392,2.21992122 L28.4338108,2.21992122 L28.0317984,1.56957811 C28.3247377,1.45389207 28.5054875,1.1912535 28.5054875,0.834815446 C28.5054875,0.347058107 28.1658025,0.0312664961 27.6702988,0.0312664961 L25.9562923,0.0312664961 L25.9562923,2.21992122 L26.5172399,2.21992122 Z M27.51448,1.16311366 L26.5172399,1.16311366 L26.5172399,0.503390588 L27.51448,0.503390588 C27.6827643,0.503390588 27.9445399,0.503390588 27.9445399,0.834815446 C27.9445399,1.16311366 27.6827643,1.16311366 27.51448,1.16311366 Z M30.7274633,2.21992122 L30.9611914,1.75405043 L32.2669528,1.75405043 L32.500681,2.21992122 L33.1208397,2.21992122 L31.9927117,0.0312664961 L31.2354325,0.0312664961 L30.1104209,2.21992122 L30.7274633,2.21992122 Z M32.0581556,1.33507938 L31.1699886,1.33507938 L31.6156303,0.447110895 L32.0581556,1.33507938 Z M37.0568221,2.21992122 L37.0568221,1.74779713 L35.3739793,1.74779713 L35.3739793,0.0312664961 L34.8130317,0.0312664961 L34.8130317,2.21992122 L37.0568221,2.21992122 Z M39.3941038,2.21992122 L39.3941038,0.0312664961 L38.8331562,0.0312664961 L38.8331562,2.21992122 L39.3941038,2.21992122 Z M43.6479565,2.21992122 L43.6479565,1.74779713 L41.9900447,1.74779713 L43.6479565,0.503390588 L43.6479565,0.0312664961 L41.1860198,0.0312664961 L41.1860198,0.503390588 L42.8408152,0.503390588 L41.1860198,1.74779713 L41.1860198,2.21992122 L43.6479565,2.21992122 Z M47.7459904,2.21992122 L47.7459904,1.77281033 L46.0008201,1.77281033 L46.0008201,1.32882609 L47.7459904,1.32882609 L47.7459904,0.922361636 L46.0008201,0.922361636 L46.0008201,0.478377391 L47.7459904,0.478377391 L47.7459904,0.0312664961 L45.4398725,0.0312664961 L45.4398725,2.21992122 L47.7459904,2.21992122 Z M51.0898614,2.21992122 C51.6539254,2.21992122 52.1494291,1.86973647 52.1494291,1.12559386 C52.1494291,0.381451253 51.6539254,0.0312664961 51.0898614,0.0312664961 L49.5067426,0.0312664961 L49.5067426,2.21992122 L51.0898614,2.21992122 Z M50.8779478,1.74779713 L50.0676902,1.74779713 L50.0676902,0.503390588 L50.8779478,0.503390588 C51.3017749,0.503390588 51.5884815,0.594063426 51.5884815,1.12559386 C51.5884815,1.65712429 51.3017749,1.74779713 50.8779478,1.74779713 Z M57.4877805,2.21992122 L57.4877805,1.53518496 L59.0459683,1.53518496 L59.0459683,1.05993422 L57.4877805,1.05993422 L57.4877805,0.503390588 L59.2329508,0.503390588 L59.2329508,0.0312664961 L56.9268329,0.0312664961 L56.9268329,2.21992122 L57.4877805,2.21992122 Z M61.5359524,2.21992122 L61.5359524,0.0312664961 L60.9750048,0.0312664961 L60.9750048,2.21992122 L61.5359524,2.21992122 Z M63.9043979,2.21992122 L63.9043979,0.578430178 L65.390909,2.21992122 L66.154421,2.21992122 L66.154421,0.0312664961 L65.5934734,0.0312664961 L65.5934734,1.67588419 L64.1038459,0.0312664961 L63.3434503,0.0312664961 L63.3434503,2.21992122 L63.9043979,2.21992122 Z M68.4636553,2.21992122 L68.6973835,1.75405043 L70.0031449,1.75405043 L70.236873,2.21992122 L70.8570318,2.21992122 L69.7289038,0.0312664961 L68.9716245,0.0312664961 L67.846613,2.21992122 L68.4636553,2.21992122 Z M69.7943477,1.33507938 L68.9061807,1.33507938 L69.3518224,0.447110895 L69.7943477,1.33507938 Z M73.1101713,2.21992122 L73.1101713,0.578430178 L74.5966825,2.21992122 L75.3601945,2.21992122 L75.3601945,0.0312664961 L74.7992469,0.0312664961 L74.7992469,1.67588419 L73.3096194,0.0312664961 L72.5492237,0.0312664961 L72.5492237,2.21992122 L73.1101713,2.21992122 Z M78.4765701,2.25118772 C79.3460389,2.25118772 79.7823314,1.91663621 79.8384262,1.28192634 L79.2681295,1.28192634 C79.2151511,1.6383644 78.94091,1.77906363 78.4765701,1.77906363 C77.9093897,1.77906363 77.6663124,1.57270475 77.6663124,1.12246721 C77.6663124,0.675356316 77.9062734,0.472124091 78.4765701,0.472124091 C78.9440264,0.472124091 79.2151511,0.609696674 79.2681295,0.963008081 L79.8384262,0.963008081 C79.7823314,0.331424859 79.3460389,0 78.4765701,0 C77.5167264,0 77.1053648,0.397084501 77.1053648,1.12246721 C77.1053648,1.85097657 77.5167264,2.25118772 78.4765701,2.25118772 Z M83.9052963,2.21992122 L83.9052963,1.77281033 L82.160126,1.77281033 L82.160126,1.32882609 L83.9052963,1.32882609 L83.9052963,0.922361636 L82.160126,0.922361636 L82.160126,0.478377391 L83.9052963,0.478377391 L83.9052963,0.0312664961 L81.5991784,0.0312664961 L81.5991784,2.21992122 L83.9052963,2.21992122 Z" id="DECENTRALIZEDFINANCE"></path>
                </g>
                <g id="Group" transform="translate(2.094704, 98.208308)" fill="#DDDDDD" fill-rule="nonzero">
                    <path d="M11.1500436,13.0300889 L17.7738319,0 L14.0571507,0 L8.88691593,10.554372 L3.7166812,0 L0,0 L6.62378827,13.0300889 L11.1500436,13.0300889 Z M18.8549216,13.0300889 L20.2348775,10.2565414 L27.9442311,10.2565414 L29.324187,13.0300889 L32.9856699,13.0300889 L26.3250828,0 L21.8540258,0 L15.2118381,13.0300889 L18.8549216,13.0300889 Z M26.7408101,7.81805336 L21.4566979,7.81805336 L24.1080244,2.44314167 L26.7408101,7.81805336 Z M38.0239184,13.0300889 L38.0239184,9.54919374 L43.3033325,9.54919374 L45.3604836,13.0300889 L49.2199174,13.0300889 L46.8714883,9.15829107 C48.5827467,8.4695578 49.6386295,6.90594713 49.6386295,4.78390408 C49.6386295,1.88005569 47.654298,0 44.7597226,0 L34.7470407,0 L34.7470407,13.0300889 L38.0239184,13.0300889 Z M43.9021285,6.67774595 L37.9495329,6.67792057 L37.9495329,2.7688939 L43.7671607,2.7688939 L43.8108193,2.7688939 L43.8108193,2.7688939 L43.9001015,2.76906252 C44.8806596,2.77271613 46.2760127,2.85553109 46.2760127,4.73267033 C46.2760127,6.59081982 44.8825813,6.67402054 43.9021285,6.67774595 L43.9021285,6.67774595 Z M65.3308414,13.0300889 L65.3308414,10.3682279 L55.030934,10.3682279 L55.030934,7.72498129 L64.4162098,7.72498129 L64.4162098,5.30510763 L55.030934,5.30510763 L55.030934,2.66186102 L65.3308414,2.66186102 L65.3308414,0 L51.7202495,0 L51.7202495,13.0300889 L65.3308414,13.0300889 Z M70.7037145,13.0300889 L70.7037145,3.25752223 L79.4255352,13.0300889 L83.9052963,13.0300889 L83.9052963,0 L80.6140432,0 L80.6140432,9.79118111 L71.8739378,0 L67.4124614,0 L67.4124614,13.0300889 L70.7037145,13.0300889 Z" id="VAREN"></path>
                </g>
                <g id="Icon-Copy">
                    <g id="Group-5-Copy-2">
                        <g id="Group-2-Copy-2" transform="translate(43.000000, 41.000000) scale(-1, 1) translate(-43.000000, -41.000000) ">
                            <path d="M0.0572001232,47.9608708 C0.281102576,46.1660909 0.878175782,44.9994839 1.25134654,44.2815719 C3.56500521,39.884361 9.01329822,30.6412442 9.98354218,28.9362033 C10.2820788,28.4875083 10.6552495,27.7695963 10.9537861,26.7824673 C11.3269569,25.7055994 11.4762252,24.6287314 11.5508594,24.3595144 C11.6254935,23.9108194 11.6254935,23.9108194 11.7001277,23.5518634 C11.7001277,23.3723854 11.9240301,22.1160394 12.4464692,21.0391715 C12.8942741,20.0520425 13.4167131,19.4238695 13.7898839,18.8854355 C16.9245182,15.2958756 21.2511898,12.6747664 22.2235429,9.64231873 C22.351366,9.24368068 22.5345759,8.81493212 22.763353,8.37210163 C22.7885472,8.32333475 23.0425819,1.14354238 23.0688682,1.09445534 C24.6196398,-1.80145531 27.8198584,1.91360191 30.4332995,2.3734599 C38.568422,3.80928386 43.7279822,9.4509586 50.8182266,15.0147765 C51.294844,15.4115226 53.290085,17.8948509 56.6673611,21.0391715 C58.9188786,23.1353852 62.047258,28.2044525 66.0524995,36.2463734 L67.67049,43.4322858 L70.3732588,52.5478272 C70.3018577,53.0808069 70.1665197,54.7290568 69.9672447,57.492577 C69.4490779,64.6784492 66.0006903,72.5841219 65.1050805,76.3531598 C62.7167877,75.4557698 42.8834534,79.9767337 33.778087,81.6817746 C32.3296282,81.9397903 30.6401638,82.0818932 28.7131584,81.9497806 C28.1669177,81.9123311 35.5352738,67.4040889 50.8182266,38.4250541 C33.5971396,67.0674424 24.788411,81.3371514 24.3920408,81.2341811 C21.9290803,80.5943458 19.1850332,79.4963324 16.1644274,77.7332587 C17.5575982,77.3144767 24.5838642,67.716551 37.2432254,48.9394815 C38.6494846,46.4230759 39.3526142,43.9870828 39.3526142,41.6315023 C39.3526142,38.9809032 38.3433282,36.0338949 36.324756,32.7904772 C36.2399307,34.7831809 36.0301923,36.4140173 35.6955409,37.6829864 C35.1935636,39.58644 28.9324485,47.3344607 27.0001286,48.0506098 C23.8753633,49.2086985 25.174026,47.2344405 20.3974404,48.9394815 C19.5018306,49.2086985 18.4569525,49.6573935 17.3374402,50.7342615 C15.9193913,52.0803464 14.4496099,53.7789901 14.4496099,53.7789901 C14.2257075,54.2276851 14.1510733,54.4071631 13.9271709,54.945597 C13.6286343,55.57377 11.7001277,58.1911166 10.879152,58.9090286 C10.0581763,59.6269406 9.31183483,59.9858966 8.78939577,60.1653746 C8.34159087,60.3448526 7.96842011,60.4345916 7.89378596,60.4345916 C6.84890785,60.7038085 5.95329804,60.6140695 5.50549313,60.6140695 C4.99503598,60.5263887 2.82095965,58.2486003 2.40282825,57.9277772 C2.07713677,57.6778812 25.943769,38.5085732 25.8797988,38.4250541 C25.7856451,38.3021277 23.1532119,36.198065 20.3974404,40.3172124 C11.4248268,53.7288892 2.51017076,58.1073965 2.40282825,57.9277772 C2.06290862,57.3589798 1.82545587,56.8491745 1.69915144,56.5758146 C1.02744408,55.1399907 0.803541632,53.8836447 0.430370877,51.8196478 C0.0572001232,50.3838238 -0.0920681784,49.3069558 0.0572001232,47.9608708 Z M18.5722695,12.7993827 C18.3718762,12.9171992 18.3701354,12.5469271 18.4953103,12.0896379 C18.6204852,11.6323488 18.9399729,4.69890557 18.9662592,4.64981853 C19.6798873,3.3171897 20.7757892,3.04183594 21.9370988,3.89035148 C22.0524522,3.97463489 22.0167174,5.45129786 21.8298945,8.3203404 C20.6695918,10.7117122 19.5837168,12.2047264 18.5722695,12.7993827 Z M16.7460699,28.5658256 L21.0087116,26.3291298 C21.8512688,25.5571074 22.377867,24.2704034 22.377867,22.8550291 L22.377867,21.0536435 C22.377867,20.2816211 20.9326625,19.5766416 20.5995444,20.2199936 L16.058688,27.8731745 C15.3214504,29.0312081 15.6564517,29.0312081 16.7460699,28.5658256 Z M1.25548975,49.6533366 C1.40561638,50.6895002 1.3211328,50.2255481 1.38677585,50.5525261 C1.51806195,51.1247377 1.7568311,52.3746903 1.88811721,52.8651574 C2.09094473,53.3250348 2.44442133,53.3250348 2.54227864,52.929386 C2.54227864,52.765897 2.98616137,51.272841 3.24873357,50.618885 C3.44566272,50.1284179 2.79643964,48.4295426 2.33693828,48.1025646 C1.84297443,47.8024639 1.10536312,48.6171729 1.25548975,49.6533366 Z" id="Combined-Shape" fill="#DDDDDD" fill-rule="nonzero"></path>
                            <g id="Group-8" transform="translate(44.858532, 31.862268)">
                                <path d="M40.4422928,17.2691171 C40.4422928,17.2691171 39.1978379,12.2395237 28.3982735,10.4230572 C21.4200329,9.24969688 15.8226506,13.4610475 9.10040392,15.6189835 C2.37867679,17.7764451 0.699140271,16.2533372 0.699140271,16.2533372 C0.699140271,16.2533372 6.0544062,24.4687159 15.7451076,25.4536312 C25.4357371,26.4380004 37.9337906,15.4465836 37.9337906,15.4465836 C37.9337906,15.4465836 40.4422928,17.2691171 40.4422928,17.2691171 Z" id="Path" fill="#DDDDDD" fill-rule="nonzero" transform="translate(20.570717, 17.868201) scale(-1, 1) rotate(-36.000000) translate(-20.570717, -17.868201) "></path>
                                <path d="M18.5670761,28.2419682 C20.5537348,28.5382311 23.2510294,28.4392177 26.6589599,27.944928 C31.7708556,27.2034935 33.8348398,25.9570125 34.7596507,25.7733989 C35.3761913,25.6509899 36.3217586,25.6509899 37.5963527,25.7733989 C36.380919,26.7165146 35.1095481,27.4403576 33.78224,27.944928 C31.7912778,28.7017836 30.7401975,29.093336 28.5387195,29.3418529 C26.3372416,29.5903698 25.0089808,29.5034923 22.3427962,29.1975965 C20.5653399,28.993666 19.3067665,28.6751232 18.5670761,28.2419682 Z" id="Path-34" fill="#BEBEBE" transform="translate(28.081714, 27.584064) scale(-1, 1) translate(-28.081714, -27.584064) "></path>
                            </g>
                            <g id="Group-9" transform="translate(48.921317, 29.001327)">
                                <path d="M30.5623465,5.48400697 C23.2443924,4.46588655 17.2490463,8.11758733 10.1194737,9.98844249 C2.99045966,11.8588863 1.25937345,10.5378866 1.25937345,10.5378866 C1.25937345,10.5378866 6.69721271,17.6628301 16.8753707,18.5177467 C27.0534663,19.3721898 41.8876397,7.0601479 30.5623465,5.48400697 Z" id="Path-Copy-20" fill="#DDDDDD" fill-rule="nonzero" transform="translate(17.946741, 11.934122) scale(-1, 1) rotate(-20.000000) translate(-17.946741, -11.934122) "></path>
                                <path d="M23.0368845,16.3295056 C24.8974586,17.0084407 26.5484414,17.4273336 27.989833,17.5861844 C30.1519205,17.8244605 30.9616825,17.2927745 32.5630308,17.8996563 C33.6305964,18.3042442 34.1439236,18.7800219 34.1030123,19.3269893 C33.3480105,19.3613057 32.3622404,19.2920275 31.1457018,19.1191547 C29.320894,18.8598455 29.2697756,18.8156322 27.8168623,18.4337136 C26.363949,18.051795 26.5243038,18.1020153 25.2745125,17.5758304 C24.4413182,17.2250405 23.6954422,16.8095989 23.0368845,16.3295056 Z" id="Path-35" fill="#BEBEBE" transform="translate(28.571081, 17.832510) scale(-1, 1) translate(-28.571081, -17.832510) "></path>
                            </g>
                            <g id="Group-10" transform="translate(44.448377, 21.196753)">
                                <path d="M31.7743216,1.23724436 C24.2306027,0.815892934 17.5229776,5.32243448 9.8369269,8.00822566 C2.15150947,10.69352 0.493993253,9.42557426 0.493993253,9.42557426 C0.493993253,9.42557426 5.35097397,16.6265695 15.9090989,16.6056466 C26.4672141,16.5843184 43.448951,1.88986368 31.7743216,1.23724436 Z" id="Path-Copy-21" fill="#DDDDDD" fill-rule="nonzero" transform="translate(18.103653, 8.907659) scale(-1, 1) rotate(-4.000000) translate(-18.103653, -8.907659) "></path>
                                <path d="M25.1378147,10.6527004 C26.5170004,11.1886429 27.8305786,11.7017339 29.078549,12.1919734 C30.9505047,12.9273326 31.6028693,12.927741 32.6060897,13.887186 C33.2749033,14.5268161 34.284303,15.3836009 35.6342888,16.4575406 C33.7546889,16.1199945 32.3666508,15.7409694 31.4701743,15.3204655 C30.1254597,14.6897095 29.991597,14.5932742 28.8832879,13.887186 C27.7749788,13.1810979 27.2895826,12.7482579 26.4300546,11.9949268 C25.8570359,11.492706 25.4262892,11.0452972 25.1378147,10.6527004 Z" id="Path-36" fill="#BEBEBE" transform="translate(30.386052, 13.555120) scale(-1, 1) translate(-30.386052, -13.555120) "></path>
                            </g>
                        </g>
                        <path d="M57.5079449,82 C55.7179549,78.0052896 53.895197,74.2089746 52.039671,70.6110551 C50.1841451,67.0131356 46.8949745,60.7104606 42.1721591,51.70303 L35.1817734,38.4250541 L43.0129153,79.8687153 L53.9767466,82 L57.5079449,82 Z" id="Path-25" fill="#BEBEBE"></path>
                        <path d="M69.8355726,77.7332587 C66.863969,74.1312459 62.7087788,68.6115921 57.3700018,61.1742974 C52.0312249,53.7370026 49.1847433,49.6500306 48.8305571,48.9133813 L47.9587134,46.8913545 C47.522333,45.8792776 47.1850002,44.8273153 46.9514393,43.7502003 L46.9384151,43.6901365 C46.7145311,42.6576484 46.6630292,41.5952306 46.7859962,40.5459286 C46.909125,39.4952461 47.1879509,38.4687411 47.6133097,37.5001523 L49.7155975,32.7130104 L49.7155975,32.7130104 L44.8394427,40.5684211 L61.6079592,81.2341811 C62.4443812,81.1037909 63.805135,80.6349554 65.6902206,79.8276745 C67.5753061,79.0203935 68.9570901,78.3222549 69.8355726,77.7332587 Z" id="Path-25-Copy" fill="#BEBEBE"></path>
                        <path d="M49.675244,32.7904772 C49.6933223,33.6763851 50.1288888,34.7639237 50.9819436,36.0530931 C52.2615256,37.9868472 56.8902187,43.9930894 58.5472141,45.5956677 C59.6518777,46.6640533 61.32405,47.5783662 63.5637309,48.3386066 C63.0188234,48.2483193 62.6756462,48.2031756 62.5341992,48.2031756 C62.1943976,48.2031756 61.8189378,48.2813792 61.3612575,48.3537668 C60.3586346,48.5123437 60.1479739,48.4343204 58.9998714,48.0506098 C57.8517689,47.6668993 55.5547353,44.9911439 53.2024228,42.2715189 C50.8501103,39.5518939 50.5449509,38.9514984 50.2035861,37.6257214 C49.9760097,36.7418701 49.7998956,35.1301221 49.675244,32.7904772 Z" id="Path-26" fill="#BEBEBE"></path>
                        <polygon id="Path-28" fill="#BEBEBE" transform="translate(65.390849, 42.937513) scale(-1, -1) translate(-65.390849, -42.937513) " points="59.4441981 38.2134594 71.3374994 47.6615668 69.2084916 46.9886657"></polygon>
                        <path d="M67.2282955,12.6596491 L64.5867625,3.57694387 C64.4478463,3.63097969 64.3081267,3.69641254 64.1676037,3.7732424 C64.0270807,3.85007225 63.9177868,3.87061999 63.8397219,3.83488561 C63.8071038,4.41311201 63.8071038,5.11600925 63.8397219,5.94357732 C63.87234,6.7711454 63.9323811,7.59157626 64.0198452,8.40486991 C64.3966014,9.24190869 64.9289784,10.1258554 65.6169764,11.0567101 C66.3049743,11.9875648 66.8420807,12.5218778 67.2282955,12.6596491 Z" id="Path-29" fill="#BEBEBE"></path>
                        <polygon id="Path-30" fill="#BEBEBE" points="63.5308385 17.5508772 70.9257525 29.6350877 64.6957672 18.2494708"></polygon>
                        <path d="M82.3025433,49.7754386 C83.0743343,51.071695 83.5483672,51.9631612 83.7246422,52.4498371 C83.9009171,52.936513 83.9009171,53.3877369 83.7246422,53.8035088" id="Path-31" fill="#BEBEBE"></path>
                    </g>
                    <path d="M66.554309,13.9376158 C63.4835794,14.7975685 62.3726887,14.1644287 60.0877629,13.838391 C57.4280184,13.4588702 54.6755426,14.5321576 54.6755426,14.5321576 C54.6755426,14.5321576 56.8442139,14.5185316 58.4540972,14.9377824 C62.8649271,16.0864644 65.7019148,18.1676886 70.3157874,18.0965249 C77.0562347,17.9923132 71.4968814,12.5533227 66.554309,13.9376158 Z" id="Path-Copy-11" fill="#DDDDDD" fill-rule="nonzero" transform="translate(64.055145, 15.905240) scale(-1, 1) rotate(-12.000000) translate(-64.055145, -15.905240) "></path>
                    <path d="M64.2789509,11.9474526 C61.2082212,12.8074053 60.0973306,12.1742655 57.8124048,11.8482279 C55.1526602,11.468707 52.4001844,12.5419945 52.4001844,12.5419945 C52.4001844,12.5419945 54.5688558,12.5283684 56.178739,12.9476192 C60.589569,14.0963012 63.4265566,16.1775255 68.0404292,16.1063618 C74.7808765,16.0021501 69.2215233,10.5631595 64.2789509,11.9474526 Z" id="Path-Copy-12" fill="#DDDDDD" fill-rule="nonzero" transform="translate(61.779787, 13.915077) scale(-1, -1) rotate(-12.000000) translate(-61.779787, -13.915077) "></path>
                    <path d="M69.1666018,15.3925328 C66.4981626,14.9945057 63.2545938,18.6696123 63.2545938,18.6696123 C63.2545938,18.6696123 65.1301696,18.0494481 66.7466809,18.4794864 C68.4037945,18.9203261 70.5829968,17.7108324 71.9750924,18.2490392 C74.3036694,19.1493049 71.4589969,15.7344688 69.1666018,15.3925328 Z" id="Path-Copy-16" fill="#DDDDDD" fill-rule="nonzero" transform="translate(68.048803, 17.016000) scale(-1, -1) rotate(29.000000) translate(-68.048803, -17.016000) "></path>
                </g>
            </g>
        </g>
    </g>
</svg>
