<?xml version="1.0" encoding="utf-8"?>
<!-- Generator: Adobe Illustrator 26.1.0, SVG Export Plug-In . SVG Version: 6.00 Build 0)  -->
<svg version="1.1" id="Ebene_1" xmlns="http://www.w3.org/2000/svg" xmlns:xlink="http://www.w3.org/1999/xlink" x="0px" y="0px"
	 viewBox="0 0 256 256" style="enable-background:new 0 0 256 256;" xml:space="preserve">
<radialGradient id="SVGID_1_" cx="128" cy="128" r="128" gradientUnits="userSpaceOnUse">
	<stop  offset="0" style="stop-color:#171A36"/>
	<stop  offset="1" style="stop-color:#000120"/>
</radialGradient>
<circle style="fill:url(#SVGID_1_);" cx="128" cy="128" r="128"/>
<path style="fill:#DDDDDD;" d="M178.2,60.3c0.5,0.3,0.5-0.6,0.2-1.6c-0.3-1-1-16.6-1.1-16.7c-1.6-3-4.1-3.6-6.7-1.7
	c-0.3,0.2-0.2,3.5,0.2,10C173.5,55.6,175.9,58.9,178.2,60.3z"/>
<path style="fill:#DDDDDD;" d="M220.2,139.4c-0.5-4-1.9-6.7-2.7-8.3c-5.2-9.9-17.6-30.7-19.8-34.5c-0.7-1-1.5-2.6-2.2-4.8
	c-0.8-2.4-1.2-4.8-1.4-5.5c-0.2-1-0.2-1-0.3-1.8c0-0.4-0.5-3.2-1.7-5.7c-1-2.2-2.2-3.6-3-4.8c-0.4-0.5-0.8-0.9-1.2-1.4
	c1.9-0.4,3.1-0.9,3.1-0.9s-4.4-0.8-7.1-3.4c-0.2-0.2-0.4-0.4-0.6-0.5c0.1,0,0.2,0,0.3,0c3.8-0.2,8.6,0.9,8.6,0.9s-5.6-3.7-11.7-4.1
	c-0.1,0-0.3,0-0.4,0c3.9-1.2,6.9-3.1,6.9-3.1s-4.8,1-8.6,0.9c-0.5,0-1.1-0.1-1.6-0.1c-3.2-3-5.8-5.9-6.8-9c-0.3-0.9-0.7-1.9-1.2-2.9
	c-0.1-0.1-0.6-16.3-0.7-16.4c-3.5-6.5-10.8,1.8-16.7,2.9c-18.4,3.2-30.2,15.9-46.2,28.5c-1.1,0.9-5.6,6.5-13.3,13.6
	c-1.6,1.5-3.5,3.7-5.5,6.6c-8.7,3.9-17.3,9.1-26.7,13.1c-17,7.2-20.9,4.6-20.9,4.6s8,10.2,23.8,13.1c-3.8,3.1-7.8,6.4-12,9.3
	c-13.7,9.4-18.5,8-18.5,8s10.1,6.4,24.9,6.7c-2.9,4.7-5.6,9.7-9.1,14.3c-9.5,12.8-14.6,12.3-14.6,12.3s13.8,5.2,29.2,1.2
	c2.4,14,8.4,28.1,10.1,35.4c5.4-2,50.4,8.2,71,12c3.3,0.6,7.1,0.9,11.5,0.6c1.2-0.1-15.5-32.7-50.1-98c39.1,64.5,59,96.6,59.9,96.3
	c5.6-1.4,11.8-3.9,18.7-7.9c-3.2-0.9-19.1-22.5-47.8-64.8c-3.2-5.7-4.8-11.1-4.8-16.4c0-6,2.3-12.6,6.9-19.9c0.2,4.5,0.7,8.2,1.4,11
	c1.1,4.3,15.3,21.7,19.7,23.3c7.1,2.6,4.1-1.8,15,2c2,0.6,4.4,1.6,6.9,4c3.2,3,6.5,6.9,6.5,6.9c0.5,1,0.7,1.4,1.2,2.6
	c0.7,1.4,5.1,7.3,6.9,8.9c1.9,1.6,3.6,2.4,4.7,2.8c1,0.4,1.9,0.6,2,0.6c2.4,0.6,4.4,0.4,5.4,0.4c1.2-0.2,6.1-5.3,7-6
	c0.8-1.3,1.3-2.4,1.6-3c1.5-3.2,2-6.1,2.9-10.7C220.2,144.9,220.6,142.4,220.2,139.4z M169.6,78.9c0-1.7,3.3-3.3,4-1.9l10.3,17.2
	c1.7,2.6,0.9,2.6-1.6,1.6l-9.7-5c-1.9-1.7-3.1-4.6-3.1-7.8V78.9z M161.7,118c0.2-0.3,6.2-5,12.4,4.3c3.9,5.9,7.9,10.9,11.7,15.3
	C173.3,127.5,161.6,118,161.7,118z M217.5,143.2c-0.3,2.3-0.1,1.3-0.3,2c-0.3,1.3-0.8,4.1-1.1,5.2c-0.5,1-1.3,1-1.5,0.1
	c0-0.4-1-3.7-1.6-5.2c-0.4-1.1,1-4.9,2.1-5.7C216.2,139.1,217.8,140.9,217.5,143.2z"/>
<path id="Path-34" style="fill-rule:evenodd;clip-rule:evenodd;fill:#BEBEBE;" d="M33.4,166.7c4.5,0.7,10.6,0.4,18.4-0.7
	c11.6-1.7,16.3-4.5,18.4-4.9c1.4-0.3,3.5-0.3,6.4,0c-2.8,2.1-5.6,3.8-8.7,4.9c-4.5,1.7-6.9,2.6-11.9,3.1c-5,0.6-8,0.4-14.1-0.3
	C37.9,168.4,35,167.7,33.4,166.7z"/>
<path id="Path-35" style="fill-rule:evenodd;clip-rule:evenodd;fill:#BEBEBE;" d="M32.1,133.5c4.2,1.5,8,2.5,11.2,2.8
	c4.9,0.5,6.7-0.7,10.4,0.7c2.4,0.9,3.6,2,3.5,3.2c-1.7,0.1-3.9-0.1-6.7-0.5c-4.1-0.6-4.3-0.7-7.5-1.5c-3.3-0.9-2.9-0.7-5.8-1.9
	C35.2,135.5,33.6,134.6,32.1,133.5z"/>
<path id="Path-36" style="fill-rule:evenodd;clip-rule:evenodd;fill:#BEBEBE;" d="M38.7,103.2c3.1,1.2,6.1,2.4,8.9,3.5
	c4.2,1.7,5.7,1.7,8,3.8c1.5,1.4,3.8,3.4,6.9,5.8c-4.3-0.8-7.4-1.6-9.4-2.6c-3-1.4-3.4-1.6-5.9-3.2c-2.5-1.6-3.6-2.6-5.6-4.3
	C40.4,105,39.4,104,38.7,103.2z"/>
<path id="Path-25" style="fill-rule:evenodd;clip-rule:evenodd;fill:#BEBEBE;" d="M156.4,216c-4.1-9-8.2-17.5-12.4-25.6
	c-4.2-8.1-11.7-22.3-22.4-42.6L105.8,118l17.8,93.3l24.9,4.8H156.4z"/>
<path id="Path-25-Copy" style="fill-rule:evenodd;clip-rule:evenodd;fill:#BEBEBE;" d="M183.7,206.4c-6.7-8.1-16.2-20.5-28.3-37.3
	c-12.1-16.7-18.6-25.9-19.4-27.6l-2-4.6c-1-2.3-1.8-4.6-2.3-7.1l0-0.1c-0.5-2.3-0.6-4.7-0.3-7.1c0.3-2.4,0.9-4.7,1.9-6.9l4.8-10.8
	l0,0L127,122.8l38,91.5c1.9-0.3,5-1.3,9.3-3.2C178.6,209.3,181.7,207.7,183.7,206.4z"/>
<path id="Path-26" style="fill-rule:evenodd;clip-rule:evenodd;fill:#BEBEBE;" d="M138,105.3c0,2,1,4.4,3,7.3
	c2.9,4.4,13.4,17.9,17.2,21.5c2.5,2.4,6.3,4.5,11.4,6.2c-1.2-0.2-2-0.3-2.3-0.3c-0.8,0-1.6,0.2-2.7,0.3c-2.3,0.4-2.8,0.2-5.4-0.7
	c-2.6-0.9-7.8-6.9-13.1-13c-5.3-6.1-6-7.5-6.8-10.5C138.7,114.2,138.3,110.5,138,105.3z"/>
<polygon id="Path-28" style="fill-rule:evenodd;clip-rule:evenodd;fill:#BEBEBE;" points="187.1,138.7 160.1,117.5 165,119 "/>
<path id="Path-29" style="fill-rule:evenodd;clip-rule:evenodd;fill:#BEBEBE;" d="M177.8,60l-6-20.4c-0.3,0.1-0.6,0.3-1,0.4
	c-0.3,0.2-0.6,0.2-0.7,0.1c-0.1,1.3-0.1,2.9,0,4.7c0.1,1.9,0.2,3.7,0.4,5.5c0.9,1.9,2.1,3.9,3.6,6C175.7,58.5,176.9,59.7,177.8,60z"
	/>
<polygon id="Path-30" style="fill-rule:evenodd;clip-rule:evenodd;fill:#BEBEBE;" points="169.4,71 186.2,98.2 172,72.6 "/>
<path id="Path-31" style="fill-rule:evenodd;clip-rule:evenodd;fill:#BEBEBE;" d="M212,143.5c1.8,2.9,2.8,4.9,3.2,6
	c0.4,1.1,0.4,2.1,0,3"/>
</svg>
