<?xml version="1.0" encoding="UTF-8"?>
<svg width="922px" height="256px" viewBox="0 0 922 256" version="1.1" xmlns="http://www.w3.org/2000/svg" xmlns:xlink="http://www.w3.org/1999/xlink">
    <title>VarenXLogo</title>
    <g id="Marketing-Assets" stroke="none" stroke-width="1" fill="none" fill-rule="evenodd">
        <g id="VarenX" transform="translate(-182.000000, -193.000000)">
            <g id="VarenXLogo" transform="translate(182.000000, 195.000000)">
                <g id="DarkHorse-Copy" transform="translate(0.000000, 68.544000)" fill="#DDDDDD" fill-rule="nonzero">
                    <g id="Group">
                        <path d="M99.1517501,114.912 L158.05378,0 L125.003196,0 L79.0268899,93.07872 L33.0505834,0 L0,0 L58.9020297,114.912 L99.1517501,114.912 Z M167.667369,114.912 L179.938626,90.45216 L248.494043,90.45216 L260.7653,114.912 L293.325033,114.912 L234.09577,0 L194.336899,0 L135.271253,114.912 L167.667369,114.912 Z M237.792624,68.9472 L190.803662,68.9472 L214.38058,21.546 L237.792624,68.9472 Z M338.127652,114.912 L338.127652,84.21408 L385.074836,84.21408 L403.368049,114.912 L437.68806,114.912 L416.804657,80.76672 C432.02202,74.6928 441.411457,60.90336 441.411457,42.18912 C441.411457,16.58016 423.765791,0 398.025783,0 L308.98802,0 L308.98802,114.912 L338.127652,114.912 Z M390.399629,58.89086 L337.466178,58.8924 L337.466178,24.4188 L389.199427,24.4188 L389.587662,24.4188 L389.587662,24.4188 L390.381603,24.4202871 C399.101215,24.4525081 411.509391,25.1828511 411.509391,41.737291 C411.509391,58.1242608 399.118304,58.8580057 390.399629,58.89086 L390.399629,58.89086 Z M580.954434,0 L580.954434,23.47488 L489.362519,23.47488 L489.362519,46.7856 L572.821073,46.7856 L572.821073,68.1264 L489.362519,68.1264 L489.362519,91.43712 L580.954434,91.43712 L580.954434,114.912 L459.92226,114.912 L459.92226,0 L580.954434,0 Z M639.138911,0 L716.860289,86.34816 L716.860289,0 L746.127753,0 L746.127753,114.912 L706.291482,114.912 L628.732701,28.728 L628.732701,114.912 L599.465237,114.912 L599.465237,0 L639.138911,0 Z" id="VAREN"></path>
                    </g>
                </g>
                <polygon id="Path-3" stroke="#FFD149" stroke-width="2.8" points="543.92511 0 633.819076 0 700.752502 59.5133574 700.752502 112.92921 646.386242 52.4607856 603.007414 52.4607856"></polygon>
                <polygon id="Path-4" stroke="#FFD149" stroke-width="2.8" points="827.743559 0 918 0 775.184587 126 918 252 827.743559 252 762.375957 193.637492 762.375957 58.6408037"></polygon>
                <polygon id="Path-5" stroke="#FFD149" stroke-width="2.8" points="656.740321 152.604438 696.257143 196.491279 633.819076 252 543.92511 252 603.347321 199.603289 644.97042 199.603289 644.97042 162.93049"></polygon>
            </g>
        </g>
    </g>
</svg>